<?xml version="1.0" standalone="no"?>
<!DOCTYPE svg PUBLIC "-//W3C//DTD SVG 20010904//EN"
 "http://www.w3.org/TR/2001/REC-SVG-20010904/DTD/svg10.dtd">
<svg version="1.0" xmlns="http://www.w3.org/2000/svg"
 width="800.000000pt" height="800.000000pt" viewBox="0 0 800.000000 800.000000"
 preserveAspectRatio="xMidYMid meet">
<metadata>
Created by potrace 1.11, written by Peter Selinger 2001-2013
</metadata>
<g transform="translate(0.000000,800.000000) scale(0.100000,-0.100000)"
fill="#000000" stroke="none">
<path d="M3303 7815 c0 -22 2 -30 4 -17 2 12 2 30 0 40 -3 9 -5 -1 -4 -23z"/>
<path d="M4433 7827 c15 -23 48 -147 67 -254 13 -74 4 -163 -16 -163 -8 0 -14
-7 -14 -15 0 -22 -15 -18 -28 8 -11 19 -12 17 -9 -20 3 -54 -10 -55 -30 -3
-12 29 -19 37 -28 30 -6 -5 -15 -7 -18 -3 -4 3 4 -16 17 -43 16 -34 22 -60 18
-87 l-4 -37 -39 42 c-21 24 -38 53 -39 65 0 27 -20 42 -21 16 -1 -21 -9 3 -29
80 -7 26 -17 47 -22 47 -5 0 -9 -21 -8 -47 2 -67 1 -75 -9 -68 -6 3 -13 26
-17 50 -8 57 -24 58 -25 3 -2 -52 -2 -47 6 -81 11 -41 -11 -33 -47 18 -40 57
-54 49 -22 -13 14 -27 27 -73 30 -107 l6 -60 -21 26 c-11 15 -23 42 -25 60 -2
19 -12 54 -20 78 -9 24 -16 53 -16 65 0 12 -7 31 -16 42 -15 18 -15 18 -10 -3
18 -73 18 -70 2 -43 -9 14 -15 35 -16 47 0 27 -10 53 -20 53 -8 0 3 -76 19
-130 17 -55 12 -69 -8 -25 l-19 40 -1 -38 -1 -38 -30 16 -30 15 10 -25 c26
-69 -2 -59 -35 11 -17 37 -30 53 -35 45 -5 -10 -9 -9 -13 3 -4 9 -11 16 -16
16 -13 0 -3 -55 16 -93 8 -16 13 -31 11 -33 -5 -5 -98 101 -114 129 -9 16 -12
10 -17 -38 -3 -31 -2 -68 3 -81 7 -18 6 -22 -5 -18 -7 3 -16 23 -20 45 -12 70
-33 37 -26 -40 2 -21 0 -23 -13 -12 -9 8 -16 22 -16 32 0 12 -5 16 -14 13 -18
-7 -23 2 -46 88 -10 40 -19 66 -19 59 -1 -11 -4 -12 -12 -4 -10 10 -18 50 -40
203 -5 41 -15 80 -21 85 -7 7 -9 -1 -5 -25 31 -208 38 -300 21 -300 -8 0 -20
12 -28 28 -8 15 -15 21 -16 13 0 -8 -6 -11 -16 -7 -25 10 -35 -3 -21 -27 11
-18 11 -29 1 -57 l-12 -35 -6 35 c-3 19 -8 53 -10 76 -4 44 -40 124 -56 124
-6 0 -3 -17 6 -37 11 -25 17 -73 19 -140 2 -57 2 -103 0 -103 -1 0 -16 12 -32
28 -21 19 -32 41 -37 72 -9 59 -29 92 -22 35 16 -119 18 -155 8 -155 -6 0 -17
19 -26 43 -10 25 -14 31 -11 13 19 -98 8 -76 -20 39 -6 25 -8 27 -14 11 -4
-10 -1 -42 6 -69 7 -28 9 -53 5 -56 -9 -7 -10 -111 -1 -105 4 2 9 -15 12 -39
3 -23 9 -60 12 -82 5 -30 4 -36 -4 -25 -8 11 -11 12 -11 2 0 -7 -5 -10 -11 -6
-6 3 -9 17 -6 30 3 20 2 22 -10 12 -12 -10 -14 -6 -9 28 6 35 5 36 -5 14 l-11
-25 -12 30 c-6 17 -19 42 -30 57 -22 34 -36 84 -45 163 l-6 60 -16 -29 -16
-30 -13 24 c-7 13 -16 35 -21 49 l-7 26 -1 -27 c-1 -15 4 -39 10 -55 15 -40
13 -83 -5 -118 -9 -16 -16 -38 -16 -49 0 -36 -29 4 -36 50 -3 24 -10 42 -14
39 -9 -5 -24 -82 -21 -107 1 -10 0 -18 -4 -18 -14 0 -65 63 -65 81 0 13 -6 19
-17 17 -12 -2 -24 10 -37 37 l-20 40 -8 -45 c-16 -83 -18 -90 -32 -90 -10 0
-13 12 -10 48 l4 47 -22 -46 c-26 -53 -44 -53 -54 -3 -8 41 -23 33 -27 -13 -1
-22 -6 -29 -18 -26 -13 4 -15 -4 -11 -51 4 -46 2 -56 -11 -56 -9 0 -18 13 -22
33 -11 53 -16 67 -25 67 -5 0 -6 -17 -3 -37 5 -36 5 -37 -10 -18 -16 19 -16
19 -17 -12 0 -18 -3 -33 -6 -33 -12 0 -54 51 -54 66 0 7 -5 13 -12 12 -11 -3
-19 24 -33 116 -4 24 -10 35 -14 28 -5 -9 -11 -4 -19 13 -16 35 -15 44 3 21 8
-11 15 -16 15 -12 0 13 -62 87 -68 82 -3 -3 1 -12 8 -21 7 -8 14 -29 16 -46 2
-16 10 -56 18 -87 33 -136 39 -186 22 -225 -8 -21 -19 -37 -25 -37 -5 0 -13
35 -16 78 -12 121 -21 125 -28 11 -4 -57 -10 -114 -13 -126 -10 -36 -24 -16
-24 32 0 24 -5 67 -12 95 -15 65 -26 44 -27 -47 -1 -57 -13 -83 -24 -50 -2 6
-7 -11 -10 -39 -4 -28 -14 -59 -22 -70 -14 -18 -14 -18 -15 3 0 15 -5 21 -14
17 -17 -7 -25 15 -33 90 -8 80 -22 107 -23 42 0 -27 -2 -47 -5 -44 -6 6 -23
81 -35 157 -10 60 -52 136 -90 160 -24 15 -25 15 -8 -4 23 -28 37 -67 55 -160
14 -77 14 -152 -3 -272 l-6 -42 -44 37 c-29 24 -43 43 -40 55 2 9 0 15 -4 12
-5 -3 -12 10 -16 30 -3 19 -10 35 -15 35 -14 0 2 -62 29 -109 16 -29 21 -46
14 -49 -8 -2 -7 -12 3 -32 15 -30 21 -140 7 -140 -7 0 -43 39 -93 100 l-20 25
7 -35 c6 -31 5 -33 -9 -21 -9 7 -23 46 -33 87 -13 62 -19 73 -30 63 -11 -9
-14 -8 -14 3 0 14 -56 97 -75 110 -20 15 -28 8 -11 -10 9 -11 23 -43 30 -73 8
-30 22 -81 30 -114 21 -78 21 -171 1 -179 -10 -3 -15 -19 -15 -46 0 -41 -13
-53 -25 -22 -4 9 -9 61 -12 115 -3 54 -10 100 -14 103 -5 3 -9 -5 -9 -18 0
-13 -7 -41 -15 -63 -19 -54 -17 -78 3 -35 l17 35 3 -56 c2 -30 -3 -69 -9 -85
l-12 -29 -13 50 c-6 28 -13 43 -13 34 -1 -9 -8 -20 -17 -23 -8 -3 -12 -12 -9
-18 4 -7 0 -5 -8 4 -8 10 -17 15 -20 11 -4 -3 -7 16 -7 44 0 63 -11 75 -26 26
l-11 -38 -4 62 c-2 33 -1 59 4 56 4 -2 7 12 7 31 0 20 -4 36 -10 36 -5 0 -10
15 -10 33 0 41 -10 77 -21 77 -5 0 -9 -34 -9 -75 0 -41 -4 -75 -9 -75 -6 0
-10 -79 -11 -187 0 -103 -4 -191 -9 -196 -5 -5 -20 12 -34 42 -18 39 -23 64
-21 99 l4 47 -13 -33 c-9 -24 -15 -30 -24 -21 -8 8 -11 -6 -12 -53 0 -34 -2
-73 -3 -85 -3 -25 -18 -21 -18 5 -1 12 -5 10 -15 -8 -9 -15 -14 -19 -15 -10 0
13 -1 13 -11 0 -8 -11 -9 5 -5 60 3 41 1 91 -3 110 -7 31 -9 25 -15 -45 -11
-118 -21 -134 -35 -54 -6 36 -12 101 -12 145 l-1 79 -9 -55 c-4 -30 -9 -86
-11 -123 -3 -74 -11 -90 -33 -61 -13 17 -14 15 -9 -21 3 -22 9 -53 14 -70 4
-16 9 -63 9 -102 1 -67 -1 -73 -19 -73 -15 0 -20 7 -21 28 0 26 0 27 -10 4 -5
-13 -11 -35 -13 -49 -7 -38 -15 -40 -22 -4 -4 21 -11 30 -20 27 -7 -3 -17 6
-23 22 -9 22 -10 15 -5 -33 3 -33 10 -68 15 -77 14 -26 11 -48 -5 -42 -8 3
-22 24 -30 47 l-16 42 5 -45 6 -45 -16 28 c-20 35 -29 30 -15 -7 13 -34 13
-64 1 -50 -5 5 -17 44 -26 87 -9 42 -19 77 -22 77 -3 0 -3 -26 0 -57 l5 -58
-16 45 c-8 25 -17 40 -19 34 -2 -6 10 -51 27 -100 29 -82 35 -103 56 -174 11
-39 -1 -21 -45 65 -45 90 -50 84 -21 -24 12 -40 19 -76 16 -78 -2 -2 -28 41
-56 96 -58 110 -94 146 -59 58 34 -85 32 -86 -10 -5 -43 81 -61 102 -61 70 0
-22 76 -197 111 -256 38 -65 79 -156 69 -156 -4 0 -20 15 -35 33 -14 17 -34
41 -43 52 -9 11 -25 37 -34 58 -23 50 -31 47 -12 -5 8 -22 11 -44 8 -47 -4 -3
-8 -1 -10 4 -2 6 -14 25 -27 44 -12 19 -30 48 -39 65 l-18 31 6 -30 7 -30 -23
23 c-12 13 -24 22 -26 20 -4 -5 12 -56 32 -106 8 -18 14 -45 14 -61 0 -16 7
-45 15 -64 19 -46 19 -60 0 -27 -8 14 -14 19 -15 11 0 -8 7 -22 15 -31 8 -9
17 -36 19 -61 4 -40 3 -42 -7 -16 -6 15 -14 27 -19 27 -11 0 -10 -93 1 -123 5
-14 7 -34 4 -46 -5 -21 -6 -21 -19 4 -7 14 -16 59 -20 100 -4 41 -11 75 -16
75 -7 0 -7 -44 -2 -122 10 -147 9 -174 -6 -213 -9 -23 -13 -26 -20 -15 -6 8
-10 31 -11 50 -1 24 -3 28 -6 13 -8 -39 -18 -26 -40 50 -11 39 -26 88 -32 107
l-11 35 5 -33 c7 -46 -10 -31 -25 23 -7 25 -17 48 -21 51 -12 7 -12 10 16 -80
14 -43 25 -89 25 -102 0 -27 -19 -33 -21 -6 -1 9 -5 -1 -9 -23 -9 -46 -1 -145
11 -145 5 0 9 -10 9 -22 0 -30 -43 32 -104 152 -27 52 -55 104 -62 115 -33 48
-11 -24 46 -152 40 -90 60 -146 60 -173 0 -21 5 -42 10 -45 6 -3 10 -27 10
-53 l-1 -47 -20 39 c-16 30 -23 36 -31 25 -6 -10 -7 -7 -3 10 5 17 4 21 -5 16
-9 -5 -10 -2 -6 13 4 12 2 24 -6 29 -17 10 -73 100 -83 131 -4 13 -9 22 -11
19 -2 -2 10 -40 26 -86 33 -89 40 -136 14 -88 -27 50 -26 21 0 -32 15 -28 22
-51 16 -51 -6 0 -16 11 -22 25 -15 33 -30 33 -18 0 13 -33 5 -32 -15 3 -16 26
-16 26 -10 2 15 -65 17 -90 6 -90 -17 0 -13 -25 8 -44 11 -10 22 -30 25 -44 4
-15 13 -40 20 -57 8 -16 22 -56 31 -88 20 -70 31 -70 14 -1 -7 27 -13 63 -14
79 -1 17 -5 46 -9 65 l-8 35 37 -36 c29 -29 37 -45 40 -80 2 -24 4 -44 5 -44
10 0 22 -146 14 -187 -7 -39 -8 -41 -15 -18 -6 21 -7 21 -8 5 -1 -11 -4 -31
-7 -45 -4 -20 -3 -22 5 -10 10 13 11 13 10 0 0 -8 -4 -24 -9 -35 l-9 -20 -1
20 c-1 13 -6 7 -15 -18 -8 -21 -21 -45 -30 -53 -14 -14 -17 -13 -29 18 -8 18
-17 48 -21 66 -7 34 -25 44 -25 15 -1 -15 -4 -14 -20 6 l-20 23 0 -32 c0 -27
-2 -30 -14 -21 -10 8 -8 -4 6 -44 12 -30 25 -55 29 -55 13 0 11 14 -3 28 -9 9
-9 12 -1 12 7 0 15 -9 18 -21 4 -11 9 -18 12 -15 3 3 1 19 -5 35 -15 43 -6 39
18 -9 23 -46 25 -54 8 -43 -22 13 -38 12 -38 -2 0 -8 4 -16 10 -20 5 -3 6 -13
3 -22 -6 -14 -8 -14 -20 3 -7 10 -13 14 -13 8 1 -14 40 -61 40 -46 0 6 5 12
11 12 8 0 8 -4 0 -14 -7 -8 -9 -25 -6 -39 4 -14 2 -28 -4 -31 -18 -11 -13 -26
6 -19 14 5 13 1 -4 -16 -27 -26 -27 -26 -6 -61 15 -27 15 -30 -1 -54 -15 -23
-15 -28 -2 -41 10 -11 12 -23 6 -44 -10 -37 -30 -74 -37 -68 -2 3 0 15 7 26 6
12 7 21 2 21 -6 0 -12 -8 -15 -17 -2 -10 -8 -27 -13 -37 -6 -15 -4 -17 6 -11
10 6 12 3 6 -16 -4 -13 -9 -38 -11 -56 -3 -17 -10 -44 -15 -59 -6 -15 -8 -29
-6 -31 5 -5 36 63 36 79 0 5 10 22 21 36 l22 27 -5 -28 c-6 -30 -1 -29 16 5
16 32 33 33 43 1 l10 -28 6 28 c7 26 27 38 27 16 0 -5 4 -8 8 -5 5 3 16 -21
26 -53 22 -74 16 -247 -11 -321 -3 -8 -7 -23 -8 -33 -1 -9 -11 -28 -23 -40
-23 -24 -30 -43 -12 -32 5 3 10 4 10 2 0 -10 -54 -124 -70 -147 -9 -14 -20
-33 -23 -43 -10 -28 11 -10 29 25 8 16 18 28 21 25 2 -3 0 -14 -6 -25 -6 -11
-15 -39 -20 -62 -9 -42 -9 -43 10 -24 10 11 33 60 50 109 30 87 47 120 56 111
2 -2 -4 -21 -15 -43 -30 -58 -36 -95 -7 -41 13 26 29 49 33 52 11 7 3 -93 -9
-116 -5 -9 -9 -28 -9 -42 0 -14 -18 -67 -40 -118 -57 -130 -48 -158 13 -43 26
50 56 101 68 115 l20 25 -5 -50 c-14 -122 -15 -170 -5 -152 5 9 15 17 20 17
13 0 5 -39 -27 -140 -13 -41 -24 -77 -23 -80 0 -3 13 22 29 55 25 53 28 56 24
25 -3 -27 -2 -31 5 -15 5 11 10 31 10 44 1 38 43 152 58 158 7 3 13 13 13 23
0 33 17 31 31 -3 10 -22 13 -68 12 -147 -1 -72 1 -108 7 -95 5 11 9 30 9 41 1
12 7 34 15 48 l14 27 6 -24 c3 -13 1 -39 -4 -58 -13 -44 -13 -109 0 -109 6 0
10 6 10 14 0 8 4 18 10 21 15 9 -1 -120 -19 -154 -6 -11 -11 -33 -11 -50 0
-17 -6 -45 -14 -63 -20 -50 -36 -101 -32 -106 2 -2 14 7 26 20 l23 23 -7 -22
c-16 -60 -15 -65 6 -26 13 23 34 61 47 85 26 46 41 37 21 -13 -21 -50 -6 -41
24 14 15 29 39 60 53 71 l25 19 -7 -33 c-4 -18 -23 -57 -41 -86 -19 -29 -34
-57 -34 -62 0 -5 -20 -53 -44 -107 -25 -55 -42 -103 -39 -108 8 -14 21 3 68
94 50 94 58 100 20 14 -59 -132 -1 -70 80 87 10 21 21 36 22 34 2 -2 -8 -52
-22 -111 -30 -128 -28 -157 4 -59 13 38 27 73 32 79 17 17 9 -29 -21 -125 -34
-107 -33 -103 -20 -95 5 3 10 15 10 25 0 10 5 22 11 25 7 5 8 -7 3 -40 -9 -66
9 -51 27 22 12 53 14 56 20 28 5 -26 7 -28 13 -10 21 57 24 59 20 15 l-4 -45
20 55 c10 30 20 48 20 40 3 -22 0 -80 -6 -125 l-5 -40 20 35 c11 19 21 31 21
25 0 -5 7 1 15 15 l14 25 1 -30 c1 -58 13 -105 26 -105 8 0 14 -6 14 -14 0 -8
5 -18 12 -22 8 -5 9 -2 5 9 -3 9 -1 19 5 23 7 5 9 -16 6 -68 -4 -54 -2 -79 8
-93 9 -12 14 -47 15 -94 0 -42 4 -94 8 -116 6 -32 8 -19 13 70 3 61 10 121 16
135 l9 24 12 -21 c6 -12 11 -40 11 -62 0 -22 5 -43 11 -46 7 -5 9 18 5 76 -3
46 -3 78 0 71 3 -6 10 -10 14 -7 5 3 7 -12 4 -32 -4 -35 -4 -36 7 -13 l11 25
13 -35 c8 -19 14 -53 15 -75 1 -36 2 -38 14 -22 13 17 15 16 22 -15 7 -32 8
-31 16 22 4 30 13 72 19 93 30 92 69 -2 50 -119 -8 -47 -8 -78 -2 -95 9 -21
10 -22 11 -4 4 49 28 -76 30 -152 0 -13 5 -23 10 -23 9 0 14 86 10 214 -1 37
18 112 26 104 2 -2 -1 -21 -7 -42 -6 -20 -8 -43 -6 -49 3 -7 10 10 18 38 7 27
14 44 17 37 2 -6 13 -12 24 -12 19 0 19 0 -1 29 -25 34 -18 65 11 58 17 -5 19
-2 14 18 -4 14 0 27 9 35 12 10 16 8 24 -12 10 -27 3 -146 -9 -153 -5 -3 1
-23 12 -46 13 -27 17 -51 13 -72 -5 -31 -5 -31 11 6 19 44 29 47 38 11 5 -19
10 -23 20 -15 10 8 11 -2 5 -55 -5 -36 -13 -82 -19 -102 -5 -20 -10 -50 -10
-67 1 -29 1 -29 15 -11 11 15 15 16 16 5 1 -26 18 25 18 57 1 23 12 41 41 68
39 36 40 36 34 12 -9 -38 9 -32 46 14 17 22 36 37 41 34 5 -3 8 0 7 7 -2 6 3
14 10 16 8 3 12 -10 12 -46 0 -44 -2 -50 -17 -44 -14 5 -16 3 -6 -7 9 -10 9
-19 -2 -41 -10 -19 -11 -29 -4 -31 8 -3 4 -19 -10 -47 -12 -23 -21 -47 -19
-53 3 -7 10 2 17 18 18 41 79 90 93 76 16 -16 30 -215 18 -265 -5 -23 -10 -55
-10 -71 0 -28 1 -29 15 -10 17 22 20 12 5 -17 -6 -10 -8 -19 -5 -19 12 0 35
70 35 103 0 34 25 107 36 107 3 0 5 -17 3 -38 -3 -42 9 -92 22 -92 12 0 31 79
24 99 -6 14 -8 14 -14 -3 -4 -11 -10 -15 -13 -10 -3 5 -1 20 4 34 7 20 11 22
18 10 7 -11 9 -3 9 25 -1 22 -3 32 -6 23 -5 -19 -23 -25 -23 -9 0 5 5 22 11
38 9 24 12 26 20 11 5 -9 15 -15 22 -12 15 5 36 -34 38 -69 1 -17 2 -18 6 -4
5 17 15 22 26 11 7 -7 -7 -22 -42 -47 l-25 -16 25 -9 c13 -6 27 -8 31 -5 5 2
8 -5 8 -17 0 -15 5 -20 18 -18 9 2 16 9 15 15 -2 8 5 7 22 0 17 -9 24 -22 27
-48 2 -26 0 -35 -9 -32 -15 6 -18 -13 -3 -22 6 -3 10 -18 10 -33 l1 -27 25 30
c20 23 24 25 21 10 -3 -11 -9 -39 -12 -62 -6 -38 -4 -43 12 -43 44 1 69 54 48
103 -4 10 -3 17 4 17 6 0 11 -7 11 -16 0 -13 7 -15 35 -11 19 3 37 2 40 -4 10
-16 -28 -59 -48 -53 -21 7 -22 -9 -2 -26 11 -9 22 -10 38 -3 14 6 34 7 55 1
19 -5 40 -7 48 -4 8 3 14 1 14 -4 0 -15 21 -12 41 6 16 14 19 13 37 -6 l20
-22 14 21 c15 24 33 29 25 6 -8 -20 8 -28 23 -10 7 8 21 15 33 15 17 0 19 5
14 35 -3 19 -1 37 4 40 13 8 11 -62 -2 -87 -8 -15 -8 -19 0 -14 6 4 11 2 11
-5 0 -8 4 -8 16 2 10 8 14 26 13 57 -3 34 1 46 15 54 20 11 35 -4 46 -45 8
-29 24 -24 35 11 5 17 13 32 18 32 5 0 6 -8 2 -17 -4 -10 -10 -31 -12 -48 -3
-27 -2 -28 7 -8 5 13 14 23 19 23 5 0 7 10 4 23 -4 21 -4 22 11 3 9 -11 16
-28 16 -37 0 -10 6 -24 13 -31 8 -7 20 -25 28 -38 13 -24 14 -23 19 35 4 49 9
61 27 71 13 6 20 13 18 16 -3 3 1 8 10 11 8 4 15 2 15 -3 0 -5 7 -7 15 -4 8 4
15 1 15 -5 0 -6 -10 -11 -22 -12 -17 0 -19 -2 -8 -7 16 -8 21 -21 22 -66 1
-26 2 -27 14 -11 11 15 12 13 7 -19 -7 -46 13 -49 26 -4 l9 33 2 -30 2 -30 10
30 c12 33 36 65 50 65 13 0 9 -27 -6 -43 -8 -8 -12 -24 -9 -40 l5 -26 30 32
c23 25 29 27 25 12 -3 -11 -8 -36 -11 -55 l-6 -35 15 39 c8 22 18 42 21 45 11
11 -9 -153 -23 -186 -7 -18 -9 -33 -4 -33 18 0 55 76 60 124 7 61 30 75 32 19
1 -21 3 -30 6 -21 2 10 10 18 18 18 7 0 16 8 20 18 6 16 7 16 21 -2 15 -21 17
-101 5 -198 -4 -32 -4 -58 -1 -58 7 0 30 114 30 148 0 11 5 33 11 49 l12 28 7
-25 c8 -25 8 -25 9 4 1 16 9 53 18 83 14 43 20 52 35 47 10 -3 18 0 18 6 0 6
6 10 13 7 12 -4 14 -13 16 -80 1 -52 21 -37 22 16 0 37 16 98 19 72 0 -5 3
-33 6 -61 4 -33 2 -54 -5 -58 -6 -4 -11 -12 -11 -17 0 -6 7 -4 15 5 8 8 15 19
15 24 0 14 36 52 49 52 6 0 10 4 9 8 -2 4 12 25 30 47 17 22 32 34 32 28 0 -7
-5 -15 -10 -18 -6 -3 -10 -19 -10 -34 0 -16 -7 -34 -15 -41 -17 -14 -21 -60
-5 -60 5 0 16 15 24 33 l14 32 2 -30 c1 -27 3 -24 19 22 21 56 65 126 101 158
l23 20 -13 -25 c-7 -14 -23 -38 -35 -55 -29 -39 -43 -81 -24 -70 8 5 21 14 31
22 14 13 18 12 27 -4 9 -16 12 -16 21 -3 8 12 10 11 10 -7 0 -12 -5 -34 -11
-50 -14 -36 -20 -115 -8 -108 5 3 8 16 8 28 -1 12 6 40 15 62 14 35 16 36 12
10 -2 -16 -7 -41 -11 -55 -6 -23 -5 -24 8 -7 8 9 17 39 21 66 8 59 33 94 70
96 21 0 26 -3 23 -16 -3 -12 0 -16 10 -12 15 6 14 -5 -4 -54 -3 -7 0 -13 7
-13 8 0 10 -12 6 -37 l-5 -38 20 43 c11 23 23 42 28 42 4 0 6 -22 3 -49 -6
-69 13 -71 28 -3 16 74 33 102 27 45 -3 -24 -2 -43 3 -43 4 0 11 25 15 55 5
47 12 59 39 80 18 14 35 25 38 25 6 0 -8 -106 -16 -118 -3 -6 1 -13 9 -16 10
-3 18 1 22 12 3 9 11 23 17 31 9 11 12 6 17 -25 6 -34 7 -36 14 -16 8 24 25
30 25 10 0 -9 3 -8 10 2 17 28 25 -2 25 -98 0 -112 -38 -283 -74 -341 -13 -21
-13 -23 -1 -19 24 7 79 96 85 136 3 20 12 75 21 122 8 47 16 109 16 138 2 57
11 73 27 45 9 -15 10 -12 11 16 0 33 1 34 15 15 13 -18 14 -18 8 4 -4 18 -2
21 11 16 11 -4 17 -16 16 -33 -4 -61 0 -93 13 -88 6 2 12 15 13 28 1 13 2 37
3 53 0 19 5 26 10 20 11 -11 41 -167 41 -214 0 -18 3 -30 7 -27 10 10 5 124
-7 177 -6 28 -7 62 -2 90 l9 45 12 -30 c7 -16 18 -50 24 -75 7 -25 20 -52 29
-60 9 -8 35 -60 58 -115 37 -89 60 -132 60 -113 0 4 -12 49 -26 100 -14 51
-29 109 -33 128 -4 19 -15 49 -24 67 -9 18 -17 39 -17 48 0 8 -4 15 -10 15 -5
0 -10 9 -10 20 0 11 -4 20 -9 20 -17 0 -23 42 -10 66 14 27 29 32 29 9 0 -8 6
-12 15 -9 11 5 13 -1 8 -30 -4 -24 -2 -36 6 -36 6 0 11 -10 11 -22 0 -17 3
-19 9 -10 10 17 21 -6 21 -46 0 -19 3 -23 11 -15 6 6 11 48 12 94 0 46 2 78 5
71 2 -7 7 -10 11 -8 4 3 16 -18 26 -47 10 -29 23 -55 29 -59 6 -4 11 -15 11
-24 0 -10 6 -19 13 -21 8 -3 12 6 12 24 0 16 7 38 15 49 15 19 15 19 19 -22 1
-6 6 -18 12 -25 6 -8 14 -21 17 -29 5 -13 6 -12 6 1 1 9 -6 36 -14 59 -19 53
-19 55 0 40 17 -14 50 -6 40 10 -3 5 0 19 8 31 l15 21 7 -24 c4 -12 11 -25 16
-28 4 -3 4 -23 -1 -45 -5 -22 -7 -49 -3 -60 5 -18 7 -18 16 5 6 16 11 20 14
12 8 -20 32 18 33 50 0 15 5 30 10 33 6 3 10 0 10 -8 0 -21 53 -29 63 -10 6
10 17 13 33 9 14 -4 24 -2 24 4 0 6 11 3 24 -5 15 -10 26 -12 30 -6 4 5 31 8
60 6 41 -3 55 -1 60 10 9 23 22 18 36 -15 7 -17 16 -30 19 -30 12 0 4 73 -12
110 -10 22 -12 39 -6 46 6 7 4 16 -6 24 -11 9 -12 16 -5 25 5 6 7 15 3 18 -3
4 8 10 26 13 28 6 32 10 28 30 -6 33 9 30 18 -3 4 -17 2 -29 -4 -31 -6 -2 -8
-8 -5 -14 7 -10 13 -86 13 -148 0 -19 3 -31 7 -28 8 8 45 145 49 178 1 14 3
31 4 38 0 6 6 12 11 12 6 0 9 -3 9 -7 -5 -29 4 -33 15 -8 l13 30 12 -23 c6
-12 9 -27 6 -33 -9 -13 83 -294 93 -285 5 6 -13 82 -31 130 -6 16 -11 52 -12
81 0 35 -7 58 -18 69 -9 10 -17 27 -17 39 0 11 -5 36 -12 54 -8 22 -9 37 -3
41 15 11 35 50 35 69 0 10 9 29 19 43 l19 24 11 -24 c6 -14 18 -51 26 -82 9
-32 21 -60 26 -63 11 -8 12 -9 -6 49 -17 56 -19 78 -5 56 17 -27 11 -1 -10 37
-14 27 -17 41 -9 55 5 10 7 22 4 27 -3 5 4 7 15 4 11 -3 20 -14 20 -24 0 -11
4 -19 9 -19 6 0 6 12 0 32 -13 48 -12 51 14 28 19 -19 22 -31 21 -98 0 -72
-13 -168 -29 -219 -6 -20 -4 -23 19 -23 22 0 26 4 26 28 0 42 33 212 41 212 5
0 14 -12 21 -27 17 -34 38 -42 38 -13 0 17 3 20 13 12 9 -8 11 0 8 35 -3 47
24 127 40 117 5 -3 9 4 9 16 0 12 4 19 9 16 5 -4 12 0 14 6 4 10 6 10 6 1 2
-28 92 -216 100 -208 6 6 26 -35 52 -105 12 -33 26 -60 31 -60 5 0 7 8 4 18
-24 80 -55 201 -57 217 -3 24 15 70 30 80 6 3 11 18 11 33 0 22 2 24 11 12 7
-11 8 2 3 44 -5 47 -4 58 7 54 8 -3 16 -15 17 -29 2 -13 8 -28 13 -33 5 -6 9
-19 9 -29 0 -13 5 -17 14 -14 10 4 16 -2 18 -19 5 -40 22 -32 31 15 7 37 11
42 19 27 6 -11 7 -37 2 -64 -8 -53 -6 -83 7 -96 5 -6 9 4 9 25 0 19 4 39 9 45
5 5 11 32 13 59 9 100 40 240 57 260 24 27 51 109 44 134 -4 15 -1 21 11 21 9
0 16 5 16 12 0 6 9 2 21 -11 28 -30 41 -23 54 30 l11 44 6 -35 c3 -22 -1 -49
-13 -75 -10 -22 -18 -33 -19 -25 -2 21 -38 -101 -55 -188 -8 -41 -15 -95 -15
-120 l1 -47 13 38 c8 21 17 55 21 75 4 20 10 42 14 47 4 6 16 38 26 73 23 78
34 87 29 24 -3 -38 -2 -41 5 -17 4 17 15 46 25 65 13 27 14 31 1 16 -15 -19
-15 -19 -15 2 0 13 10 42 22 65 25 47 30 76 17 93 -11 14 -1 44 20 62 12 10
13 15 4 18 -7 3 -13 15 -13 27 0 20 0 20 15 1 14 -19 14 -18 15 4 0 12 5 22
11 22 5 0 7 5 4 10 -3 5 -1 10 6 10 12 0 11 -5 -15 -112 -12 -50 -12 -58 0
-58 8 0 14 5 14 11 0 6 8 27 18 47 l17 37 6 -35 c3 -19 -1 -50 -8 -69 -15 -38
-17 -61 -5 -61 4 0 16 33 26 72 27 110 84 276 114 332 35 67 36 70 23 62 -6
-4 -11 -2 -11 4 0 6 8 10 18 8 12 -2 18 5 20 25 5 41 -14 33 -53 -25 -27 -41
-35 -48 -35 -31 0 31 31 93 46 93 7 0 15 8 17 18 4 16 5 16 6 0 1 -17 21 -26
21 -10 0 4 12 24 26 43 24 31 26 32 21 9 -22 -101 -41 -158 -68 -196 -31 -46
-59 -105 -59 -126 0 -21 16 4 35 54 18 50 45 82 45 57 1 -8 7 1 15 19 21 49
39 43 36 -13 0 -11 8 3 18 30 10 28 28 66 40 86 12 20 20 45 19 55 -1 10 1 35
4 54 4 19 14 80 23 135 23 139 21 137 58 80 29 -45 32 -58 37 -150 5 -90 6
-96 14 -56 l8 44 19 -24 c17 -22 19 -22 19 -5 0 11 -5 35 -12 53 -10 28 -10
42 5 82 9 27 17 53 17 59 0 15 31 85 35 80 2 -2 -4 -31 -14 -63 -10 -33 -21
-85 -24 -115 -6 -51 -5 -50 10 17 9 45 19 70 26 66 6 -4 7 -1 3 6 -10 16 2 63
14 56 6 -3 10 0 10 9 0 25 42 126 51 120 11 -7 49 -135 43 -145 -3 -5 0 -28 7
-51 6 -24 13 -54 16 -67 5 -30 38 -129 54 -165 16 -34 33 -33 26 1 -6 32 -34
173 -43 218 -4 17 -12 37 -19 45 -15 17 -95 230 -95 252 0 22 12 29 27 16 8
-7 2 14 -14 46 -21 44 -29 53 -31 37 -2 -11 -7 -21 -11 -21 -4 0 -7 -19 -7
-41 1 -25 -4 -44 -12 -46 -8 -3 -10 1 -6 12 4 9 1 34 -6 55 -9 27 -10 43 -3
52 17 21 9 50 -24 98 -34 49 -78 92 -107 103 -13 5 -17 13 -12 30 4 12 18 65
31 117 41 155 109 301 135 285 8 -5 51 47 65 80 7 19 8 19 14 -4 l7 -24 16 25
c21 32 33 78 21 78 -6 0 -15 -12 -21 -26 -7 -14 -16 -23 -21 -20 -11 7 -57
-45 -66 -74 -7 -22 -25 -27 -25 -7 1 27 47 102 64 102 10 0 22 8 27 18 7 11 7
17 -1 17 -18 0 -10 15 19 35 27 17 28 20 13 32 -25 18 -34 16 -27 -7 7 -23 -8
-26 -49 -10 -20 7 -26 6 -26 -4 0 -8 -11 -13 -25 -13 -18 0 -25 5 -25 18 0 11
-7 19 -15 19 -19 0 -19 5 1 35 18 28 34 33 34 10 0 -8 5 -15 10 -15 14 0 12
13 -4 35 -10 14 -11 23 -3 36 8 13 7 22 -2 33 -12 14 -11 19 3 34 9 10 16 24
16 30 0 19 -19 14 -32 -8 -13 -20 -38 -27 -38 -11 0 5 -12 11 -27 13 -30 3
-40 33 -11 33 24 0 34 13 14 21 -9 3 -16 15 -16 25 0 19 -42 44 -67 40 -8 -1
-10 4 -7 14 8 19 13 19 36 -2 12 -11 18 -12 18 -4 0 9 5 8 15 -3 8 -8 15 -17
15 -21 0 -13 29 -35 45 -35 12 0 15 5 11 16 -3 9 -6 18 -6 20 0 2 -7 4 -15 4
-8 0 -15 5 -15 10 0 6 5 10 11 10 5 0 7 5 4 10 -3 6 -17 10 -29 10 -23 0 -43
34 -26 45 4 2 8 16 8 31 0 17 -4 22 -10 16 -12 -12 -40 -4 -32 9 3 5 -2 9 -11
9 -13 0 -15 5 -9 23 4 12 8 30 8 39 0 13 6 16 21 12 11 -4 20 -7 20 -8 0 -9
40 -76 46 -76 12 0 7 43 -8 65 -19 28 -18 51 2 35 10 -9 15 -9 15 -1 0 6 7 11
15 11 20 0 19 13 -5 40 -26 30 -26 31 13 28 18 -1 38 2 45 6 11 7 17 -5 13
-27 -1 -5 2 -6 7 -3 5 3 19 -9 32 -26 16 -22 25 -27 30 -18 5 8 4 24 -1 37
-11 29 4 30 22 2 9 -13 20 -18 31 -14 17 7 16 9 -4 38 l-22 30 27 -7 c15 -3
27 -5 27 -2 0 2 -11 23 -24 47 -25 46 -46 107 -27 79 17 -25 23 -3 7 27 -8 15
-15 22 -16 15 0 -18 -20 -4 -20 14 0 8 5 12 10 9 13 -8 13 8 -2 40 -8 18 -17
24 -29 20 -12 -4 -22 1 -30 16 -10 19 -9 21 5 16 18 -7 19 -2 6 28 l-9 20 0
-20 c-1 -17 -3 -17 -11 -5 -7 11 -10 4 -10 -25 0 -47 21 -130 45 -177 9 -18
19 -48 21 -67 5 -34 5 -34 -30 17 -19 28 -42 71 -51 96 -18 48 -31 63 -20 24
4 -13 9 -31 12 -42 3 -12 1 -16 -6 -11 -23 13 -89 162 -105 235 -9 41 -21 89
-26 106 -16 49 -13 57 35 98 25 21 53 52 62 70 9 17 21 34 28 39 7 4 16 25 20
47 4 22 11 40 17 40 6 0 8 -7 4 -15 -3 -8 -2 -15 2 -15 4 0 20 26 36 58 15 31
22 51 15 45 -19 -19 -29 -16 -29 10 0 31 78 238 97 259 9 10 13 18 10 18 -3 0
-1 15 5 33 9 28 20 82 44 205 4 18 3 32 -3 32 -14 0 -39 -61 -64 -155 -33
-123 -37 -144 -31 -150 7 -7 -39 -155 -48 -155 -14 0 -82 161 -77 180 3 11 1
18 -3 15 -5 -3 -11 1 -13 7 -3 7 -6 8 -6 2 -2 -22 49 -156 69 -181 23 -30 30
-88 7 -63 -8 8 -26 51 -42 95 -15 44 -31 85 -35 90 -5 6 -16 41 -25 78 -14 58
-15 76 -5 113 13 44 8 75 -5 35 -9 -29 -22 -26 -33 7 -8 22 -9 13 -9 -45 0
-58 -5 -83 -28 -128 -15 -31 -33 -59 -41 -62 -8 -3 -14 -18 -14 -34 0 -16 -4
-29 -9 -29 -18 0 -33 70 -26 118 l8 47 13 -45 c16 -52 15 -40 -12 125 -9 55
-17 114 -18 130 -1 17 -11 46 -23 65 -12 19 -27 55 -34 80 -12 44 -13 45 -18
15 -6 -28 -28 -35 -25 -8 1 7 -2 10 -7 7 -5 -3 -9 3 -9 13 0 14 -2 15 -9 4 -7
-11 -14 -5 -29 25 -11 21 -25 58 -32 81 -7 23 -16 40 -20 38 -8 -5 -39 106
-42 147 0 13 -4 1 -7 -27 l-6 -50 -18 70 c-9 39 -23 116 -29 173 -7 56 -15
102 -19 102 -8 0 -4 -135 6 -254 7 -72 -8 -87 -21 -21 -6 35 -24 49 -24 19 0
-9 9 -48 21 -86 26 -90 23 -104 -17 -70 -30 26 -59 102 -32 86 6 -4 4 3 -5 17
-18 25 -23 59 -8 59 10 0 -5 67 -19 85 -4 6 -11 26 -15 45 l-7 35 27 -30 26
-30 -25 51 c-13 27 -28 67 -31 88 -10 50 -24 27 -18 -28 3 -34 2 -38 -7 -23
-7 10 -13 50 -14 88 -3 67 -16 112 -16 54 0 -44 -9 -26 -41 86 l-29 104 6 -75
c3 -41 14 -120 25 -175 23 -112 28 -187 12 -192 -5 -2 -8 -15 -5 -30 4 -20 2
-24 -9 -17 -8 5 -18 9 -24 9 -5 0 -10 7 -10 15 0 8 -8 21 -17 28 -10 7 -18 18
-18 23 0 6 -7 17 -15 25 -16 16 -20 34 -7 34 4 0 15 -14 25 -31 25 -45 33 -29
9 18 -36 68 -42 87 -58 173 -30 162 -30 188 5 254 17 32 31 66 31 76 0 9 9 29
20 43 22 28 26 42 9 32 -11 -7 -6 36 12 105 11 44 11 60 0 60 -21 0 -89 -203
-92 -272 -3 -88 -25 -122 -31 -50 l-4 37 -12 -29 c-10 -22 -10 -37 -2 -62 13
-40 3 -114 -10 -78 -5 11 -11 46 -15 77 -4 32 -11 57 -16 57 -12 0 -11 -72 1
-163 9 -63 8 -81 -6 -116 -21 -53 -29 -46 -13 10 10 33 11 43 1 47 -8 2 -10
19 -6 58 4 30 4 54 1 54 -8 0 -33 -58 -41 -93 -9 -38 -26 -24 -26 22 0 20 -4
41 -8 46 -5 6 -15 30 -22 55 -12 42 -14 43 -21 20 -24 -71 5 100 31 188 46
154 37 167 -20 29 -17 -42 -35 -75 -40 -72 -4 3 -13 -9 -20 -25 -7 -17 -16
-30 -20 -30 -4 0 -10 -12 -13 -27 -12 -58 -50 -154 -61 -150 -19 6 -18 52 3
105 19 48 32 184 19 197 -3 3 -8 -23 -12 -57 -10 -90 -27 -178 -37 -184 -4 -2
-15 9 -24 26 -12 24 -15 45 -9 86 4 37 3 54 -5 54 -6 0 -11 12 -12 28 0 16 -3
21 -6 12 -4 -8 -14 -21 -23 -27 -10 -7 -21 -24 -24 -38 -4 -14 -10 -25 -14
-25 -9 0 -42 170 -42 216 0 33 -63 139 -88 149 -11 4 -10 -2 4 -22 10 -16 23
-55 30 -88 41 -202 46 -234 41 -284 -4 -36 -13 -60 -26 -73 -12 -10 -21 -24
-21 -31 0 -8 -3 -8 -9 1 -6 10 -10 8 -14 -8 -5 -19 -8 -20 -27 -10 -16 9 -20
17 -15 33 4 12 10 40 14 63 4 22 15 51 24 64 9 14 17 29 17 35 0 5 -5 3 -11
-5 -8 -11 -9 -8 -4 14 3 15 8 42 11 60 3 23 0 20 -12 -14 -39 -113 -46 -130
-53 -130 -11 0 -31 47 -31 70 0 11 -9 24 -20 30 -14 8 -20 8 -20 0 0 -6 -4 -8
-10 -5 -5 3 -10 16 -10 28 0 18 2 19 11 7 8 -12 9 -11 5 5 -7 24 14 96 43 150
12 22 21 49 21 60 0 12 6 30 14 40 7 10 11 27 8 37 -2 11 3 48 13 84 17 63 14
94 -6 64 -18 -28 -80 -238 -81 -277 -1 -21 -7 -51 -14 -68 l-12 -30 -7 30
c-12 54 -14 51 -10 -15 3 -36 3 -60 0 -55 -11 22 -37 126 -55 224 -10 57 -22
106 -25 109 -3 4 -5 -32 -4 -78 1 -47 -1 -96 -5 -110 -6 -20 -5 -22 4 -10 9
12 10 7 6 -20 -3 -19 -10 -68 -16 -108 -5 -40 -12 -78 -17 -85 -8 -13 -10 -7
-44 142 l-21 94 27 94 c28 95 28 138 0 67 -29 -71 -38 -89 -40 -79 -2 6 -6 24
-10 40 -7 28 -8 28 -15 9 -5 -12 -5 -38 0 -59 5 -21 5 -47 0 -59 -8 -20 -9
-19 -20 9 -7 17 -14 47 -17 68 -3 21 -10 40 -16 44 -6 4 -8 -6 -4 -28 4 -19 9
-68 13 -109 5 -63 3 -82 -14 -120 -17 -36 -21 -40 -21 -21 -1 24 -1 24 -16 5
-13 -18 -14 -16 -15 23 0 23 5 43 10 45 25 8 24 208 -1 208 -7 0 -8 -15 -4
-40 8 -47 -13 -191 -25 -169 -4 8 -11 35 -14 61 -4 26 -11 50 -17 53 -5 4 -9
17 -9 30 0 29 -17 42 -23 18 -3 -13 -7 -8 -12 15 -4 17 -12 32 -17 32 -6 0 -7
-10 -4 -22 16 -57 18 -81 8 -101 -7 -12 -16 -35 -22 -51 -6 -16 -13 -26 -16
-23 -8 8 -37 188 -36 220 1 31 -27 103 -57 144 -22 30 -20 50 25 246 15 66 13
97 -6 67 -18 -29 -80 -212 -80 -236 0 -13 -4 -24 -10 -24 -6 0 -6 -9 0 -24 7
-18 1 -47 -23 -118 l-32 -93 -8 65 c-12 90 -18 102 -29 57 -8 -31 -13 -36 -24
-26 -8 6 -14 21 -14 33 0 11 -4 27 -9 35 -7 11 -11 10 -20 -7 -14 -26 -14 -35
0 -27 7 5 8 -5 4 -29 -5 -24 -3 -36 4 -36 16 0 13 -70 -4 -104 -8 -15 -15 -36
-15 -45 -1 -14 -2 -14 -11 2 -5 9 -7 22 -3 28 10 17 6 181 -6 193 -7 7 -10 0
-10 -21 0 -41 -10 -69 -20 -53 -4 6 -13 -16 -21 -49 -7 -34 -17 -57 -21 -53
-14 14 -22 102 -9 102 6 0 11 10 11 23 0 12 9 36 20 52 11 17 20 40 20 53 0
12 4 30 9 40 14 27 54 192 48 199 -4 3 -18 -21 -33 -53 -58 -131 -74 -163 -84
-169 -6 -3 -10 2 -10 12 0 10 -5 25 -10 33 -7 11 -10 -4 -8 -50 2 -68 -16
-150 -32 -150 -6 0 -10 12 -10 28 -1 26 -1 26 -15 8 -13 -17 -15 -18 -15 -3 0
9 -4 17 -10 17 -5 0 -10 24 -10 54 0 39 -4 55 -15 60 -16 6 -21 -24 -16 -88 2
-15 0 -39 -4 -53 l-6 -25 -19 25 c-11 14 -20 38 -20 54 l0 28 -19 -29 -19 -29
0 70 c1 63 -19 200 -43 294 -10 40 -63 119 -80 119 -7 0 -6 -8 4 -23z m55 -72
c-3 -3 -9 2 -12 12 -6 14 -5 15 5 6 7 -7 10 -15 7 -18z m642 -365 c0 -21 -5
-51 -11 -69 -6 -18 -9 -35 -6 -38 3 -3 10 10 15 28 8 33 9 33 16 10 5 -14 4
-26 -2 -30 -6 -3 -13 -18 -17 -33 -4 -15 -14 -33 -23 -40 -13 -10 -14 -10 -8
0 12 20 -4 76 -17 63 -8 -8 -6 -26 7 -65 15 -45 16 -59 7 -89 -11 -33 -14 -35
-32 -24 -12 8 -19 23 -19 45 0 18 -6 41 -12 52 -11 17 -8 34 17 107 16 49 36
104 43 123 13 33 15 33 28 15 8 -10 14 -35 14 -55z m-1626 -95 c15 -71 14 -97
-2 -54 -11 29 -26 136 -18 128 3 -3 12 -36 20 -74z m306 -14 c0 -14 3 -37 5
-51 5 -21 3 -21 -9 5 -8 17 -17 48 -21 70 -6 37 -5 39 9 21 9 -11 16 -31 16
-45z m366 24 c10 -15 13 -32 8 -47 -7 -21 -8 -20 -25 17 -10 22 -18 43 -18 48
-2 16 19 6 35 -18z m813 -37 c0 -45 -3 -57 -9 -43 -16 36 -11 105 7 105 2 0 3
-28 2 -62z m-290 0 c1 -10 -3 -18 -9 -18 -5 0 -10 17 -9 38 0 30 2 33 9 17 5
-11 9 -28 9 -37z m-1314 -69 c9 -25 24 -63 35 -85 22 -41 26 -69 10 -59 -5 3
-10 14 -10 24 0 13 -10 20 -30 25 -27 5 -30 9 -24 31 4 16 2 25 -5 25 -21 0
-42 67 -35 111 l7 42 18 -34 c10 -19 25 -55 34 -80z m1055 74 c0 -22 -2 -25
-10 -13 -13 20 -13 40 0 40 6 0 10 -12 10 -27z m-568 -63 c5 0 6 6 2 13 -4 6
-3 8 1 4 5 -4 10 -13 11 -20 1 -7 5 -20 9 -29 10 -25 -5 -22 -37 7 -19 16 -29
37 -33 67 l-6 43 22 -42 c12 -24 25 -43 31 -43z m762 64 c10 -25 -1 -29 -14
-5 -6 12 -7 21 -1 21 5 0 12 -7 15 -16z m160 -94 c-4 -9 -12 3 -21 34 -8 26
-11 56 -7 65 8 21 36 -77 28 -99z m-798 58 l17 -33 -22 19 c-11 11 -21 25 -21
33 0 21 8 15 26 -19z m1154 -34 c0 -14 -4 -23 -10 -19 -5 3 -10 15 -10 26 0
10 5 19 10 19 6 0 10 -12 10 -26z m-3070 -48 c0 -5 -7 -1 -15 10 -8 10 -14 24
-14 29 0 6 6 1 14 -9 8 -11 15 -24 15 -30z m764 22 c-2 -13 -2 -17 2 -10 9 19
24 14 24 -8 0 -13 7 -20 19 -20 23 0 51 -55 51 -101 0 -30 -1 -31 -18 -16 -10
10 -22 14 -25 10 -4 -3 -7 10 -7 31 0 22 -4 35 -10 31 -5 -3 -11 4 -11 17 l-2
23 -4 -22 c-6 -30 -29 -29 -37 1 -7 28 3 86 14 86 5 0 6 -10 4 -22z m243 -10
c-3 -7 -5 -2 -5 12 0 14 2 19 5 13 2 -7 2 -19 0 -25z m633 -47 c0 -9 -4 -22
-9 -30 -6 -9 -10 -3 -13 20 -3 19 -8 43 -12 54 -7 17 -5 17 13 -4 12 -13 21
-31 21 -40z m2210 -10 c0 -11 -4 -10 -15 5 -8 10 -14 26 -14 34 0 11 3 10 14
-4 8 -11 15 -27 15 -35z m-1700 17 c0 -19 -2 -20 -10 -8 -13 19 -13 30 0 30 6
0 10 -10 10 -22z m-166 -50 c4 3 4 -2 0 -12 -4 -11 -3 -17 2 -14 5 4 9 -4 9
-17 0 -32 -11 -22 -41 38 l-25 52 25 -27 c13 -15 27 -24 30 -20z m1065 -53 c1
-31 -14 -64 -23 -54 -13 13 -15 103 -4 117 11 12 14 11 19 -9 4 -13 7 -37 8
-54z m-2051 40 c-3 -3 -9 2 -12 12 -6 14 -5 15 5 6 7 -7 10 -15 7 -18z m72
-28 c0 -5 -7 -4 -15 3 -8 7 -15 20 -15 29 1 13 3 13 15 -3 8 -11 15 -24 15
-29z m1100 -22 c0 -5 -5 -3 -10 5 -5 8 -10 20 -10 25 0 6 5 3 10 -5 5 -8 10
-19 10 -25z m1405 7 c1 -9 7 -42 15 -73 11 -51 11 -62 -10 -123 -12 -36 -26
-66 -31 -66 -6 0 -8 9 -4 20 9 28 19 155 17 219 -1 48 9 67 13 23z m-3107 -18
c-4 -3 -12 5 -18 18 -12 22 -12 22 6 6 10 -10 15 -20 12 -24z m-42 -26 c0 -30
-5 -52 -11 -50 -5 1 -10 9 -9 17 0 8 1 31 2 50 3 56 20 40 18 -17z m634 21
c12 -16 19 -33 16 -36 -10 -10 -46 28 -46 49 0 25 5 23 30 -13z m-573 -21 c-3
-8 -6 -5 -6 6 -1 11 2 17 5 13 3 -3 4 -12 1 -19z m2815 -45 l-10 -28 -11 27
c-6 15 -8 35 -4 44 5 14 7 14 21 1 11 -12 12 -22 4 -44z m91 -12 c-6 -3 -14
-17 -18 -30 -5 -18 -9 -20 -16 -10 -9 15 -5 40 14 77 l11 24 9 -27 c6 -17 6
-30 0 -34z m-2694 -1 c-1 -10 -2 -11 -6 -2 -2 6 -10 9 -16 5 -7 -4 -8 0 -4 11
4 10 7 23 8 29 1 17 18 -25 18 -43z m-214 -2 c-1 -24 -3 -54 -4 -68 -1 -20 -3
-22 -11 -10 -11 17 -13 64 -4 98 10 37 22 25 19 -20z m2745 -9 c0 -11 -4 -17
-10 -14 -5 3 -10 15 -10 26 0 11 5 17 10 14 6 -3 10 -15 10 -26z m-3536 -49
l7 -25 -15 25 c-17 28 -21 50 -7 35 5 -6 12 -21 15 -35z m551 -22 c3 -36 1
-47 -5 -33 -10 23 -13 101 -4 92 4 -3 8 -30 9 -59z m323 17 c-3 -3 -9 2 -12
12 -6 14 -5 15 5 6 7 -7 10 -15 7 -18z m2819 3 c-3 -8 -6 -5 -6 6 -1 11 2 17
5 13 3 -3 4 -12 1 -19z m108 12 c3 -5 1 -10 -4 -10 -6 0 -11 5 -11 10 0 6 2
10 4 10 3 0 8 -4 11 -10z m127 -17 c4 -19 -19 -63 -32 -63 -4 0 -3 18 2 40 11
42 24 52 30 23z m96 -51 c5 -31 -15 -27 -21 3 -3 16 0 24 7 22 6 -2 12 -13 14
-25z m-68 -61 c-9 -34 -34 -64 -44 -54 -9 10 -7 93 3 93 5 0 12 10 15 23 l7
22 14 -26 c10 -19 12 -35 5 -58z m-3104 42 c-10 -10 -19 5 -10 18 6 11 8 11
12 0 2 -7 1 -15 -2 -18z m3031 -25 c-3 -8 -6 -5 -6 6 -1 11 2 17 5 13 3 -3 4
-12 1 -19z m421 -42 c11 -29 10 -40 -10 -82 -21 -48 -22 -48 -26 -19 -5 37 7
135 17 135 4 0 12 -15 19 -34z m187 7 c3 -16 10 -41 15 -57 5 -16 7 -33 3 -39
-3 -5 -11 7 -18 26 -19 56 -25 97 -15 97 5 0 12 -12 15 -27z m-439 -58 c-4
-14 -11 -23 -16 -20 -14 9 -12 43 3 48 18 6 20 1 13 -28z m412 -31 c2 -42 -2
-65 -13 -79 -15 -19 -16 -17 -11 25 5 40 4 42 -5 18 -13 -34 -29 -37 -29 -6 0
34 32 109 44 105 6 -2 12 -30 14 -63z m254 4 c0 -24 1 -50 0 -58 0 -8 4 -17 9
-21 6 -3 9 -24 7 -45 -3 -36 -5 -32 -26 47 -21 80 -22 119 -1 119 5 0 10 -19
11 -42z m-4632 -7 c0 -21 2 -23 10 -11 7 11 10 7 12 -20 4 -81 3 -102 -5 -113
-5 -7 -7 0 -6 18 2 50 -1 52 -20 9 -19 -42 -53 -77 -36 -38 4 10 10 55 12 100
4 60 9 81 19 81 8 0 14 -11 14 -26z m80 8 c0 -6 -4 -7 -10 -4 -5 3 -10 11 -10
16 0 6 5 7 10 4 6 -3 10 -11 10 -16z m4180 -29 c0 -39 -20 -101 -31 -95 -5 4
-5 13 1 25 15 27 12 32 -11 25 -12 -4 -20 -3 -17 1 17 38 27 62 33 79 5 16 8
17 15 5 6 -8 10 -26 10 -40z m-1337 3 c-5 -28 -3 -34 7 -28 9 5 11 4 6 -4 -4
-6 1 -27 13 -46 15 -25 18 -41 11 -62 -4 -15 -9 -23 -9 -16 -1 6 -8 19 -17 27
-20 20 -34 115 -21 144 14 31 17 27 10 -15z m824 5 c-3 -8 -6 -5 -6 6 -1 11 2
17 5 13 3 -3 4 -12 1 -19z m-3667 -18 c0 -11 5 -20 10 -20 12 0 13 -37 1 -44
-5 -3 -7 -15 -4 -26 9 -33 -6 -22 -22 17 -9 22 -13 49 -10 65 8 32 25 38 25 8z
m4384 -15 c6 -17 -2 -45 -14 -45 -12 0 -20 28 -14 45 4 8 10 15 14 15 4 0 10
-7 14 -15z m113 -57 c-3 -7 -5 -2 -5 12 0 14 2 19 5 13 2 -7 2 -19 0 -25z
m-399 -15 c-9 -10 -18 -25 -21 -33 -5 -13 -6 -13 -6 0 -1 19 29 64 37 56 3 -3
-2 -14 -10 -23z m418 -89 c4 -72 3 -77 -11 -60 -22 29 -29 82 -15 116 7 17 15
29 17 26 2 -2 6 -39 9 -82z m-389 29 c-3 -10 -5 -4 -5 12 0 17 2 24 5 18 2 -7
2 -21 0 -30z m-4184 -24 c-3 -11 -10 -22 -16 -26 -6 -4 -8 2 -4 18 4 13 7 31
7 39 0 12 2 13 9 1 5 -7 6 -22 4 -32z m3516 -64 c0 -5 -4 -3 -9 5 -5 8 -9 22
-9 30 0 16 17 -16 18 -35z m-3966 -55 c8 -30 11 -63 8 -75 -5 -16 -6 -15 -9
10 -2 17 -8 35 -14 42 -5 7 -6 18 -2 24 4 7 0 17 -10 24 -10 8 -14 19 -10 29
10 25 21 8 37 -54z m4989 25 c9 -20 9 -20 -6 -1 -9 11 -16 27 -15 35 0 14 1
14 6 1 3 -8 10 -24 15 -35z m297 -35 c0 -23 -1 -23 -9 -5 -5 11 -9 29 -9 40
-1 17 1 17 9 5 5 -8 9 -26 9 -40z m-298 -43 c-15 -15 -23 -3 -28 40 l-4 38 21
-34 c15 -23 18 -37 11 -44z m-131 33 c0 -5 -2 -10 -4 -10 -3 0 -8 5 -11 10 -3
6 -1 10 4 10 6 0 11 -4 11 -10z m155 -80 c-14 -13 -17 -13 -25 -1 -5 9 -4 23
2 35 10 19 11 19 24 1 12 -16 12 -21 -1 -35z m-5134 3 c-12 -20 -14 -14 -5 12
4 9 9 14 11 11 3 -2 0 -13 -6 -23z m5316 -1 c6 -11 8 -24 3 -31 -5 -10 -12 -7
-24 10 -9 13 -16 27 -16 31 0 15 25 8 37 -10z m-157 -24 c0 -7 -4 -19 -9 -27
-7 -11 -11 -10 -20 6 -5 11 -7 23 -4 27 11 11 33 7 33 -6z m190 -94 c0 -8 -4
-12 -10 -9 -5 3 -10 13 -10 21 0 8 5 12 10 9 6 -3 10 -13 10 -21z m399 -204
c11 -24 11 -24 -3 -6 -9 11 -16 24 -16 30 0 12 5 7 19 -24z m-5974 -73 c12
-26 19 -50 15 -52 -10 -6 -60 106 -59 131 0 15 3 14 11 -6 6 -14 21 -46 33
-73z m6009 -39 c-2 -4 0 -9 6 -13 12 -7 14 -35 2 -35 -14 0 -32 39 -37 82 l-6
43 20 -35 c10 -19 17 -38 15 -42z m69 22 c3 -11 2 -20 -3 -20 -8 0 -20 24 -20
41 0 17 17 1 23 -21z m-143 -101 c0 -10 5 -19 11 -21 6 -2 9 -13 7 -23 -4 -17
-8 -14 -20 15 -9 19 -19 46 -22 60 -7 24 -6 24 8 6 9 -11 16 -28 16 -37z m87
-55 c2 -26 8 -53 13 -59 5 -6 11 -31 14 -55 4 -34 3 -39 -3 -20 -8 21 -9 17
-11 -25 l-2 -50 -14 45 c-18 57 -25 138 -11 143 6 2 4 13 -5 28 -9 13 -19 38
-22 54 l-7 30 22 -22 c14 -14 23 -37 26 -69z m63 33 c0 -5 -4 -5 -10 -2 -5 3
-10 14 -10 23 0 15 2 15 10 2 5 -8 10 -19 10 -23z m8 -98 l-4 -34 -10 35 c-12
37 -8 58 8 42 5 -5 8 -25 6 -43z m-128 5 c0 -8 -4 -12 -10 -9 -5 3 -10 13 -10
21 0 8 5 12 10 9 6 -3 10 -13 10 -21z m-124 -39 c4 -14 4 -29 0 -32 -3 -4 -6
1 -6 10 0 10 -4 17 -10 17 -5 0 -10 7 -10 15 0 25 19 17 26 -10z m-121 -36 c4
-6 13 -8 20 -5 23 8 44 -28 65 -109 26 -100 26 -119 2 -104 -9 6 -22 21 -28
32 -83 162 -96 197 -75 197 6 0 13 -5 16 -11z m541 -58 c7 -34 23 -79 34 -101
11 -22 20 -49 20 -60 0 -27 -25 -86 -45 -106 -18 -18 -19 -13 -15 56 l2 45
-18 -22 -19 -22 -27 44 c-31 51 -21 71 12 22 21 -31 20 -24 -3 35 -9 21 -6 42
13 102 13 42 25 74 27 72 3 -2 11 -32 19 -65z m-304 35 c7 -33 -7 -55 -15 -24
-9 32 -8 48 2 48 5 0 11 -11 13 -24z m-75 -8 c-3 -8 -6 -5 -6 6 -1 11 2 17 5
13 3 -3 4 -12 1 -19z m-21 -36 l3 -37 -15 28 c-9 16 -13 36 -10 44 9 23 19 8
22 -35z m208 -7 c5 -22 4 -26 -4 -15 -5 8 -10 24 -10 34 0 26 6 18 14 -19z
m-6102 -81 c-7 -12 -11 -13 -17 -4 -4 7 -2 16 6 21 18 11 23 4 11 -17z m6115
4 c-3 -8 -6 -5 -6 6 -1 11 2 17 5 13 3 -3 4 -12 1 -19z m-6312 -27 c3 -5 1
-12 -5 -16 -5 -3 -10 1 -10 9 0 18 6 21 15 7z m6314 -36 l0 -20 -9 20 c-5 11
-9 27 -9 35 -1 13 0 13 9 0 5 -8 9 -24 9 -35z m90 -38 c1 -5 -3 -5 -9 -2 -5 3
-10 16 -9 28 0 21 1 21 9 2 5 -11 9 -24 9 -28z m-159 -4 c0 -7 -4 -13 -10 -13
-5 0 -10 12 -10 28 0 21 2 24 10 12 5 -8 10 -21 10 -27z m350 -47 c-1 -11 -7
-34 -14 -51 -13 -29 -14 -28 -14 33 0 53 2 61 14 51 8 -6 14 -21 14 -33z
m-310 -32 c0 -13 -5 -26 -10 -29 -7 -4 -9 2 -4 19 5 20 2 26 -10 26 -18 0 -19
2 -9 26 6 16 7 16 20 -2 7 -10 13 -28 13 -40z m80 11 c0 -5 -5 -3 -10 5 -5 8
-10 20 -10 25 0 6 5 3 10 -5 5 -8 10 -19 10 -25z m-6567 -20 c19 -39 22 -71 8
-80 -9 -5 -22 27 -35 88 -9 38 7 34 27 -8z m6834 12 c-6 -20 -27 -19 -27 2 0
14 5 19 15 14 9 -3 14 -10 12 -16z m-163 -51 c-4 -18 -10 -24 -17 -17 -5 5 -6
22 -3 37 5 18 10 24 17 17 6 -6 7 -22 3 -37z m-6575 -18 c0 -13 -4 -31 -8 -41
-6 -17 -8 -18 -20 -3 -11 13 -11 22 -3 41 14 31 32 32 31 3z m6551 -7 c7 -15
5 -24 -11 -43 l-21 -23 6 25 c3 14 6 33 6 43 0 22 7 22 20 -2z m-6720 -176 c0
-17 -2 -17 -10 -5 -5 8 -10 24 -10 35 0 17 2 17 10 5 5 -8 10 -24 10 -35z
m-61 -66 c13 -39 14 -42 2 -35 -13 8 -32 66 -21 66 4 0 13 -14 19 -31z m-46
-42 c6 -22 6 -22 -14 2 -22 27 -26 49 -5 32 8 -6 16 -22 19 -34z m6672 33 c-3
-5 -10 -10 -16 -10 -5 0 -9 5 -9 10 0 6 7 10 16 10 8 0 12 -4 9 -10z m-6705
-60 c0 -5 -2 -10 -4 -10 -3 0 -8 5 -11 10 -3 6 -1 10 4 10 6 0 11 -4 11 -10z
m70 -74 c0 -6 -9 0 -20 14 -26 33 -25 52 0 21 11 -13 20 -28 20 -35z m190
-196 c6 -11 8 -26 4 -32 -5 -8 -10 -5 -15 8 -16 41 -8 59 11 24z m6760 -74 c6
-18 19 -41 30 -51 15 -13 16 -20 7 -30 -9 -10 -17 -5 -39 24 -34 47 -46 91
-25 91 9 0 20 -15 27 -34z m-34 -43 c-8 -8 -36 5 -36 17 0 7 6 7 21 0 11 -7
18 -14 15 -17z m-182 -39 c8 -3 12 -12 9 -20 -3 -8 0 -21 7 -29 8 -10 9 -15 2
-15 -13 0 -42 40 -42 57 0 15 2 15 24 7z m-6705 -146 c-7 -13 -14 -18 -16 -11
-3 7 1 22 8 35 7 13 14 18 16 11 3 -7 -1 -22 -8 -35z m6675 -155 c-30 -22 -40
-15 -14 11 14 12 27 18 29 13 2 -6 -4 -16 -15 -24z m6 -43 c0 -5 -9 -10 -20
-10 -11 0 -20 5 -20 10 0 6 9 10 20 10 11 0 20 -4 20 -10z m21 -73 c-13 -13
-15 21 -3 50 6 15 8 13 10 -11 2 -16 -1 -33 -7 -39z m-6801 45 c0 -14 -11 -21
-26 -15 -8 3 -11 9 -8 14 7 11 34 12 34 1z m-20 -123 c0 -5 -4 -9 -10 -9 -5 0
-10 7 -10 16 0 8 5 12 10 9 6 -3 10 -10 10 -16z m-10 -108 c-11 -23 -23 -41
-26 -41 -8 0 6 41 23 68 24 38 26 18 3 -27z m41 -4 c-10 -9 -11 -8 -5 6 3 10
9 15 12 12 3 -3 0 -11 -7 -18z m7035 -56 c8 7 14 7 14 1 0 -5 -7 -15 -15 -22
-8 -7 -15 -10 -15 -7 0 3 -2 11 -3 19 -2 7 -2 9 1 5 2 -4 10 -3 18 4z m-6781
-211 c-3 -5 -11 -10 -16 -10 -6 0 -7 5 -4 10 3 6 11 10 16 10 6 0 7 -4 4 -10z
m7 -52 c-7 -7 -12 -8 -12 -2 0 14 12 26 19 19 2 -3 -1 -11 -7 -17z m-124 -93
c-6 -14 -13 -24 -14 -22 -6 6 9 47 17 47 5 0 3 -11 -3 -25z m279 -67 c-3 -8
-6 -5 -6 6 -1 11 2 17 5 13 3 -3 4 -12 1 -19z m38 -74 c3 -20 4 -39 1 -42 -12
-11 -35 34 -36 67 0 27 2 31 14 22 8 -7 17 -28 21 -47z m6198 6 c-3 -20 -14
-47 -25 -60 l-20 -25 6 26 c7 31 36 103 40 98 2 -2 1 -20 -1 -39z m72 8 c0
-14 6 -32 13 -41 12 -14 11 -20 -5 -40 -10 -14 -30 -29 -45 -35 -26 -10 -27
-9 -25 16 4 43 40 133 52 129 5 -2 10 -15 10 -29z m77 -20 c-7 -7 -12 -8 -12
-2 0 14 12 26 19 19 2 -3 -1 -11 -7 -17z m-6675 -75 c-3 -10 -5 -4 -5 12 0 17
2 24 5 18 2 -7 2 -21 0 -30z m243 5 c0 -16 -3 -19 -11 -11 -6 6 -8 16 -5 22
11 17 16 13 16 -11z m6400 -2 c0 -8 -4 -17 -9 -20 -10 -7 -23 19 -14 28 11 11
23 6 23 -8z m-6636 -59 c-7 -18 -24 -23 -24 -8 0 22 13 42 22 33 5 -5 6 -16 2
-25z m356 -100 c0 -10 -4 -15 -10 -12 -5 3 -10 18 -10 33 0 21 2 24 10 12 5
-8 10 -23 10 -33z m6360 -38 c6 -11 4 -23 -5 -35 -8 -11 -15 -14 -16 -9 -4 39
-7 53 -13 75 -7 24 -7 25 9 5 9 -11 20 -27 25 -36z m-6556 15 c9 -24 7 -74 -3
-74 -12 0 -21 26 -21 61 0 31 14 39 24 13z m211 -14 c3 -5 1 -10 -4 -10 -6 0
-11 5 -11 10 0 6 2 10 4 10 3 0 8 -4 11 -10z m-283 -45 c-4 -36 -29 -85 -43
-85 -13 0 -5 57 13 96 15 32 34 25 30 -11z m6650 -47 c-8 -8 -13 -3 -17 15
-10 38 6 58 18 23 6 -18 6 -31 -1 -38z m-95 -17 c-12 -22 -24 -38 -26 -35 -7
6 33 83 41 78 3 -2 -3 -22 -15 -43z m255 4 c0 -5 -5 -11 -11 -13 -6 -2 -11 4
-11 13 0 9 5 15 11 13 6 -2 11 -8 11 -13z m-104 -40 c23 -51 24 -91 3 -126
-11 -19 -28 -68 -37 -109 l-17 -75 -26 78 c-20 63 -23 83 -14 105 23 59 24 66
2 33 -31 -46 -37 -22 -7 30 l23 41 17 -22 c17 -21 23 -19 18 5 -6 26 -7 61 -4
67 8 12 31 -2 42 -27z m-6480 -85 l0 -25 -8 25 c-4 14 -8 45 -8 70 l1 45 8
-45 c4 -25 7 -56 7 -70z m6222 82 c0 -15 -2 -15 -10 -2 -13 20 -13 33 0 25 6
-3 10 -14 10 -23z m-6193 -14 c-3 -8 -6 -5 -6 6 -1 11 2 17 5 13 3 -3 4 -12 1
-19z m6334 -29 c-16 -25 -21 -29 -21 -15 0 19 29 60 37 52 2 -2 -5 -19 -16
-37z m-161 4 c0 -10 -5 -25 -10 -33 -7 -11 -10 -7 -10 18 0 17 5 32 10 32 6 0
10 -8 10 -17z m365 -69 c-14 -18 -27 -34 -29 -34 -8 0 9 57 22 78 14 21 16 22
24 7 7 -12 2 -26 -17 -51z m-6621 30 c11 -28 6 -38 -9 -18 -8 10 -15 22 -15
27 0 13 18 7 24 -9z m117 -17 c-8 -8 -11 -7 -11 4 0 20 13 34 18 19 3 -7 -1
-17 -7 -23z m6212 13 c-3 -12 -8 -19 -11 -16 -5 6 5 36 12 36 2 0 2 -9 -1 -20z
m-6143 -4 c0 -2 -7 -7 -16 -10 -8 -3 -12 -2 -9 4 6 10 25 14 25 6z m-68 -48
c-7 -7 -12 -8 -12 -2 0 14 12 26 19 19 2 -3 -1 -11 -7 -17z m-82 -13 c0 -14
-4 -25 -8 -25 -4 0 -9 11 -10 25 -1 14 3 25 8 25 6 0 10 -11 10 -25z m-79 -38
c-10 -9 -11 -8 -5 6 3 10 9 15 12 12 3 -3 0 -11 -7 -18z m89 -12 c-7 -9 -15
-13 -18 -10 -3 2 1 11 8 20 7 9 15 13 18 10 3 -2 -1 -11 -8 -20z m6340 -2 c0
-16 -6 -50 -13 -78 -11 -41 -14 -46 -19 -27 -6 23 -2 82 8 115 8 27 24 20 24
-10z m-175 -52 c-18 -36 -40 -42 -31 -8 3 12 6 25 6 29 0 6 32 17 38 12 2 -1
-4 -16 -13 -33z m74 -74 c13 -13 2 -41 -20 -55 -19 -12 -26 -4 -19 23 1 6 4
26 6 45 2 19 7 46 11 60 6 21 8 18 11 -20 2 -25 7 -49 11 -53z m-192 61 c-3
-8 -6 -5 -6 6 -1 11 2 17 5 13 3 -3 4 -12 1 -19z m-7 -27 c0 -6 -4 -13 -10
-16 -5 -3 -10 1 -10 9 0 9 5 16 10 16 6 0 10 -4 10 -9z m115 -73 c-4 -18 -11
-37 -15 -42 -5 -5 -4 10 2 33 12 48 23 56 13 9z m131 -34 c-3 -8 -10 -14 -16
-14 -10 0 -4 43 9 65 8 13 14 -32 7 -51z m-6202 21 c-4 -8 -11 -15 -16 -15 -6
0 -5 6 2 15 7 8 14 15 16 15 2 0 1 -7 -2 -15z m6027 -152 c-45 -76 -54 -75
-16 1 14 27 25 57 25 66 0 9 6 22 13 29 10 10 13 8 15 -8 2 -11 -15 -51 -37
-88z m90 48 c-13 -17 -28 -31 -36 -31 -7 0 -16 -6 -18 -12 -4 -10 -6 -10 -6 0
-1 7 6 15 14 18 8 4 15 11 15 18 0 22 32 58 42 48 7 -7 3 -21 -11 -41z m70 2
c-12 -20 -14 -14 -5 12 4 9 9 14 11 11 3 -2 0 -13 -6 -23z m-6047 -65 c-35
-65 -33 -62 -39 -56 -8 8 16 58 27 58 5 0 7 4 3 10 -6 9 25 53 33 45 2 -2 -9
-28 -24 -57z m6051 -30 c-10 -31 -25 -47 -25 -26 0 24 11 48 22 48 5 0 6 -10
3 -22z m-6154 -71 c-17 -17 -24 -1 -10 25 12 21 14 21 17 4 2 -10 -1 -23 -7
-29z m45 -18 c-9 -22 -15 -27 -15 -16 -1 21 18 61 25 54 3 -3 -2 -20 -10 -38z
m5871 9 c-3 -8 -6 -5 -6 6 -1 11 2 17 5 13 3 -3 4 -12 1 -19z m-5821 -83 c-3
-8 -11 -15 -18 -15 -10 0 -10 2 0 9 8 4 13 11 13 15 -1 3 -1 12 0 19 0 9 2 9
6 -1 3 -7 2 -19 -1 -27z m5618 -39 c-3 -21 -9 -35 -11 -32 -3 3 -2 21 1 42 4
20 10 34 12 31 3 -3 2 -21 -2 -41z m-5707 -8 c-3 -8 -6 -5 -6 6 -1 11 2 17 5
13 3 -3 4 -12 1 -19z m5639 -87 c-3 -21 -13 -51 -21 -67 -8 -16 -12 -37 -9
-47 3 -10 -1 -19 -11 -23 -26 -10 -27 1 -4 51 12 26 22 55 21 64 0 17 18 61
26 61 2 0 2 -17 -2 -39z m-36 19 c0 -5 -5 -10 -11 -10 -5 0 -7 5 -4 10 3 6 8
10 11 10 2 0 4 -4 4 -10z m-40 -52 c-4 -18 -13 -44 -19 -58 -10 -22 -11 -20
-5 15 5 37 20 75 28 75 2 0 0 -15 -4 -32z m-5373 -30 c-2 -13 -4 -5 -4 17 -1
22 1 32 4 23 2 -10 2 -28 0 -40z m5544 -17 c-6 -4 -12 -19 -13 -34 -1 -15 -6
-27 -10 -27 -10 0 4 74 16 82 6 4 13 2 15 -3 2 -6 -2 -14 -8 -18z m-5298 -83
c4 -12 4 -24 1 -27 -6 -7 -24 20 -24 37 0 21 17 13 23 -10z m4925 -108 c-15
-24 -22 -19 -13 9 3 12 11 19 16 16 5 -4 3 -14 -3 -25z m22 -26 c-10 -21 -19
-35 -20 -31 0 14 30 80 35 75 3 -2 -4 -22 -15 -44z m59 -50 c-5 -32 -13 -77
-18 -99 l-8 -40 -16 53 c-16 51 -15 55 4 105 27 67 30 72 40 55 5 -8 4 -42 -2
-74z m-4888 43 c-10 -9 -11 -8 -5 6 3 10 9 15 12 12 3 -3 0 -11 -7 -18z m4980
-20 c-10 -9 -11 -8 -5 6 3 10 9 15 12 12 3 -3 0 -11 -7 -18z m-30 -96 c-6 -11
-11 -29 -11 -41 0 -12 -4 -19 -9 -16 -5 4 -12 0 -15 -6 -13 -29 8 60 23 97 15
38 16 39 19 13 2 -15 -2 -36 -7 -47z m-4771 -5 c0 -8 -4 -18 -10 -21 -5 -3
-10 3 -10 14 0 12 5 21 10 21 6 0 10 -6 10 -14z m4672 -110 c0 -32 -5 -63 -11
-69 -8 -8 -11 -4 -12 14 0 13 -2 60 -5 104 l-4 80 17 -35 c9 -20 16 -59 15
-94z m-188 65 c9 -16 12 -32 8 -35 -3 -4 -6 -23 -7 -43 0 -46 -16 -52 -38 -14
-21 36 -22 65 -2 85 8 8 15 19 15 25 0 19 9 12 24 -18z m-4346 -33 c-1 -31 -6
-42 -23 -50 -14 -6 -21 -17 -18 -27 2 -9 -5 -25 -15 -35 -20 -17 -20 -17 -10
26 6 24 10 56 9 71 -1 17 3 26 9 22 5 -3 10 -13 10 -21 0 -8 5 -14 11 -14 8 0
10 12 6 34 -6 35 -1 49 14 40 5 -3 8 -23 7 -46z m4432 23 c0 -11 -4 -23 -10
-26 -6 -4 -10 5 -10 19 0 14 5 26 10 26 6 0 10 -9 10 -19z m-4388 -21 c3 -20
0 -30 -9 -30 -8 0 -13 12 -13 30 0 17 4 30 9 30 5 0 11 -13 13 -30z m4183 -20
c-1 -14 -3 -31 -4 -37 -2 -24 -19 -13 -23 15 -3 15 -9 36 -13 46 -6 13 -5 17
3 12 6 -3 14 -1 18 5 10 17 22 -10 19 -41z m377 -40 c-2 -17 -8 -32 -12 -35
-11 -7 -22 43 -15 66 10 31 32 5 27 -31z m-417 3 c12 -29 13 -43 4 -70 -15
-48 -29 -41 -28 16 1 27 -2 54 -5 60 -7 10 0 31 9 31 3 0 12 -17 20 -37z m203
-31 c-6 -23 -14 -42 -19 -42 -13 0 -11 16 6 57 20 47 27 39 13 -15z m-4356 16
c-7 -7 -12 -8 -12 -2 0 6 3 14 7 17 3 4 9 5 12 2 2 -3 -1 -11 -7 -17z m4358
-118 c0 -5 -5 -10 -11 -10 -5 0 -7 5 -4 10 3 6 8 10 11 10 2 0 4 -4 4 -10z
m-282 -25 c-3 -3 -9 2 -12 12 -6 14 -5 15 5 6 7 -7 10 -15 7 -18z m-207 -12
c-8 -15 -10 -15 -11 -2 0 17 10 32 18 25 2 -3 -1 -13 -7 -23z m-212 -242 c9
-16 8 -18 -9 -14 -21 5 -25 15 -13 26 9 10 11 9 22 -12z m-3157 -41 c6 0 6 -6
-2 -15 -7 -8 -9 -15 -5 -15 4 0 2 -7 -5 -15 -17 -21 -34 -19 -25 3 4 9 9 28
10 42 3 34 6 38 12 18 2 -10 9 -18 15 -18z m3018 -15 c0 -19 -4 -35 -10 -35
-5 0 -10 16 -10 35 0 19 5 35 10 35 6 0 10 -16 10 -35z m-2830 -20 c0 -8 -4
-15 -10 -15 -5 0 -7 7 -4 15 4 8 8 15 10 15 2 0 4 -7 4 -15z m-87 -11 c36 4
36 -21 1 -35 -15 -5 -28 -8 -29 -7 -7 8 -25 48 -25 54 0 3 6 2 13 -4 7 -6 25
-9 40 -8z m2562 -4 c-3 -5 -11 -10 -16 -10 -6 0 -7 5 -4 10 3 6 11 10 16 10 6
0 7 -4 4 -10z m405 -14 c0 -3 -4 -8 -10 -11 -5 -3 -10 -1 -10 4 0 6 5 11 10
11 6 0 10 -2 10 -4z m-56 -31 c-4 -8 -10 -13 -15 -10 -4 3 -6 12 -3 20 4 8 10
13 15 10 4 -3 6 -12 3 -20z m-1224 -14 c0 -11 -5 -32 -10 -47 -8 -21 -13 -25
-23 -15 -9 9 -9 16 1 31 6 11 12 27 12 35 0 8 5 15 10 15 6 0 10 -9 10 -19z
m780 -12 c0 -17 -4 -28 -10 -24 -5 3 -10 17 -10 31 0 13 5 24 10 24 6 0 10
-14 10 -31z m70 -19 c5 0 10 -4 10 -10 0 -5 -9 -10 -20 -10 -16 0 -20 6 -19
33 0 29 1 30 9 10 5 -13 14 -23 20 -23z m423 10 c-7 -28 -13 -25 -13 6 0 14 4
23 9 20 5 -3 7 -15 4 -26z m-1343 10 c0 -5 -5 -10 -11 -10 -5 0 -7 5 -4 10 3
6 8 10 11 10 2 0 4 -4 4 -10z m1018 -21 c2 -23 2 -23 -13 -5 -18 24 -20 39 -2
34 6 -3 13 -15 15 -29z m-1329 -23 c-9 -8 -10 -7 -5 7 3 10 7 24 7 30 1 7 3 4
6 -7 3 -10 -1 -23 -8 -30z m1517 17 c-10 -10 -19 5 -10 18 6 11 8 11 12 0 2
-7 1 -15 -2 -18z m84 7 c0 -11 -4 -20 -10 -20 -5 0 -10 9 -10 20 0 11 5 20 10
20 6 0 10 -9 10 -20z m-2822 -7 c2 -8 -5 -13 -17 -13 -12 0 -21 6 -21 16 0 18
31 15 38 -3z m129 -7 c-4 -9 -13 -13 -22 -10 -20 8 -19 22 3 26 22 5 26 2 19
-16z m1069 -34 c-12 -11 -17 7 -9 34 l8 29 3 -28 c2 -16 1 -31 -2 -35z m305
15 c-10 -9 -11 -8 -5 6 3 10 9 15 12 12 3 -3 0 -11 -7 -18z m-417 -2 c-6 -16
-24 -21 -24 -7 0 11 11 22 21 22 5 0 6 -7 3 -15z m456 11 c0 -3 -4 -8 -10 -11
-5 -3 -10 -1 -10 4 0 6 5 11 10 11 6 0 10 -2 10 -4z m-400 -16 c0 -5 -5 -10
-11 -10 -5 0 -7 5 -4 10 3 6 8 10 11 10 2 0 4 -4 4 -10z m937 -22 c-3 -7 -5
-2 -5 12 0 14 2 19 5 13 2 -7 2 -19 0 -25z m303 -9 c0 -18 -4 -28 -10 -24 -5
3 -10 20 -10 36 0 18 4 28 10 24 6 -3 10 -20 10 -36z m-1194 -15 c-4 -9 -9
-15 -11 -12 -3 3 -3 13 1 22 4 9 9 15 11 12 3 -3 3 -13 -1 -22z m909 -34 c3
-5 1 -10 -4 -10 -6 0 -11 5 -11 10 0 6 2 10 4 10 3 0 8 -4 11 -10z m-224 -413
c-10 -9 -11 -8 -5 6 3 10 9 15 12 12 3 -3 0 -11 -7 -18z"/>
<path d="M5051 7214 c0 -11 3 -14 6 -6 3 7 2 16 -1 19 -3 4 -6 -2 -5 -13z"/>
<path d="M1851 6584 c0 -11 3 -14 6 -6 3 7 2 16 -1 19 -3 4 -6 -2 -5 -13z"/>
<path d="M7148 3147 c-3 -19 -2 -25 4 -19 6 6 8 18 6 28 -3 14 -5 12 -10 -9z"/>
<path d="M4712 7537 c-7 -52 -16 -112 -19 -134 -8 -52 11 -32 25 27 17 69 23
142 14 173 -6 23 -10 10 -20 -66z"/>
<path d="M4481 7564 c0 -11 3 -14 6 -6 3 7 2 16 -1 19 -3 4 -6 -2 -5 -13z"/>
<path d="M3252 7540 c0 -14 2 -19 5 -12 2 6 2 18 0 25 -3 6 -5 1 -5 -13z"/>
<path d="M4492 7510 c0 -19 2 -27 5 -17 2 9 2 25 0 35 -3 9 -5 1 -5 -18z"/>
<path d="M3481 7514 c0 -11 3 -14 6 -6 3 7 2 16 -1 19 -3 4 -6 -2 -5 -13z"/>
<path d="M3700 7500 c0 -8 5 -22 10 -30 9 -13 10 -13 10 0 0 8 -5 22 -10 30
-9 13 -10 13 -10 0z"/>
<path d="M4275 7480 c-8 -24 2 -77 16 -85 5 -4 9 18 9 49 0 56 -13 74 -25 36z"/>
<path d="M2881 7284 c0 -11 3 -14 6 -6 3 7 2 16 -1 19 -3 4 -6 -2 -5 -13z"/>
<path d="M4110 7281 c0 -5 7 -15 17 -22 15 -13 15 -12 4 9 -12 23 -21 28 -21
13z"/>
<path d="M2560 7234 c0 -7 9 -22 20 -35 10 -13 19 -19 20 -13 0 7 -9 22 -20
35 -10 13 -19 19 -20 13z"/>
<path d="M5241 7214 c0 -11 3 -14 6 -6 3 7 2 16 -1 19 -3 4 -6 -2 -5 -13z"/>
<path d="M2640 7211 c0 -6 4 -13 10 -16 6 -3 7 1 4 9 -7 18 -14 21 -14 7z"/>
<path d="M3175 7140 c3 -5 8 -10 11 -10 2 0 4 5 4 10 0 6 -5 10 -11 10 -5 0
-7 -4 -4 -10z"/>
<path d="M1810 6963 c0 -12 5 -25 10 -28 13 -8 13 15 0 35 -8 12 -10 11 -10
-7z"/>
<path d="M2181 6954 c0 -11 3 -14 6 -6 3 7 2 16 -1 19 -3 4 -6 -2 -5 -13z"/>
<path d="M1906 6847 c3 -10 9 -15 12 -12 3 3 0 11 -7 18 -10 9 -11 8 -5 -6z"/>
<path d="M1311 6633 c-1 -17 4 -35 9 -38 12 -7 12 22 0 50 -7 17 -9 15 -9 -12z"/>
<path d="M6790 6471 c0 -6 5 -13 10 -16 6 -3 10 1 10 9 0 9 -4 16 -10 16 -5 0
-10 -4 -10 -9z"/>
<path d="M1332 6370 c0 -14 2 -19 5 -12 2 6 2 18 0 25 -3 6 -5 1 -5 -13z"/>
<path d="M6810 6319 c7 -11 14 -19 16 -16 7 7 -7 37 -17 37 -6 0 -5 -9 1 -21z"/>
<path d="M1032 6240 c0 -14 2 -19 5 -12 2 6 2 18 0 25 -3 6 -5 1 -5 -13z"/>
<path d="M776 6037 c3 -10 9 -15 12 -12 3 3 0 11 -7 18 -10 9 -11 8 -5 -6z"/>
<path d="M7371 5614 c0 -11 3 -14 6 -6 3 7 2 16 -1 19 -3 4 -6 -2 -5 -13z"/>
<path d="M7382 5555 c0 -16 2 -22 5 -12 2 9 2 23 0 30 -3 6 -5 -1 -5 -18z"/>
<path d="M720 5533 c0 -6 8 -17 18 -24 16 -13 16 -13 2 6 -8 11 -16 22 -17 24
-2 2 -3 0 -3 -6z"/>
<path d="M7492 4977 c-17 -26 -28 -47 -23 -47 4 0 11 3 15 8 4 4 13 7 19 7 6
0 20 15 31 34 11 19 15 32 9 28 -6 -4 -13 -2 -15 5 -2 6 -18 -9 -36 -35z"/>
<path d="M7513 4940 c-30 -24 -29 -32 2 -20 29 11 31 4 9 -30 -13 -21 -11 -20
11 4 15 16 22 32 17 35 -5 3 -11 11 -13 18 -3 8 -11 6 -26 -7z"/>
<path d="M7399 4893 c-13 -16 -12 -17 4 -4 9 7 17 15 17 17 0 8 -8 3 -21 -13z"/>
<path d="M7440 4865 c-7 -9 -11 -17 -9 -20 3 -2 10 5 17 15 14 24 10 26 -8 5z"/>
<path d="M7334 4825 c-10 -8 -14 -15 -8 -15 6 0 17 7 24 15 16 19 9 19 -16 0z"/>
<path d="M390 4673 c0 -12 5 -25 10 -28 13 -8 13 15 0 35 -8 12 -10 11 -10 -7z"/>
<path d="M420 4595 c0 -5 5 -17 10 -25 5 -8 10 -10 10 -5 0 6 -5 17 -10 25 -5
8 -10 11 -10 5z"/>
<path d="M449 4529 c-3 -8 -2 -32 1 -54 l5 -40 7 32 c8 34 -4 89 -13 62z"/>
<path d="M260 4500 c0 -15 51 -132 56 -127 3 3 -45 128 -52 136 -2 2 -4 -1 -4
-9z"/>
<path d="M450 4416 c0 -8 5 -18 10 -21 6 -3 10 1 10 9 0 8 -4 18 -10 21 -5 3
-10 -1 -10 -9z"/>
<path d="M447 4329 c-4 -13 2 -28 15 -41 l21 -21 -6 24 c-4 13 -7 32 -7 42 0
24 -16 21 -23 -4z"/>
<path d="M7427 4330 c7 -25 23 -37 23 -17 0 8 -6 20 -14 26 -12 10 -13 8 -9
-9z"/>
<path d="M7375 4210 c4 -6 11 -8 16 -5 14 9 11 15 -7 15 -8 0 -12 -5 -9 -10z"/>
<path d="M7346 4136 c3 -8 13 -12 25 -9 16 5 18 8 7 14 -20 13 -38 11 -32 -5z"/>
<path d="M296 4073 c-6 -14 -5 -15 5 -6 7 7 10 15 7 18 -3 3 -9 -2 -12 -12z"/>
<path d="M340 4064 c-13 -32 -13 -41 0 -28 11 11 22 54 14 54 -2 0 -9 -12 -14
-26z"/>
<path d="M7458 4003 c7 -3 16 -2 19 1 4 3 -2 6 -13 5 -11 0 -14 -3 -6 -6z"/>
<path d="M335 3950 c10 -34 26 -50 20 -20 -2 13 -10 28 -16 34 -8 8 -9 4 -4
-14z"/>
<path d="M7460 3840 c0 -5 5 -10 10 -10 6 0 10 5 10 10 0 6 -4 10 -10 10 -5 0
-10 -4 -10 -10z"/>
<path d="M7405 3760 c4 -6 11 -8 16 -5 14 9 11 15 -7 15 -8 0 -12 -5 -9 -10z"/>
<path d="M7543 3575 c-18 -19 -33 -38 -33 -43 0 -5 -8 -20 -19 -33 -11 -15
-23 -55 -29 -104 -6 -45 -14 -89 -18 -100 -5 -13 -4 -16 4 -11 7 4 12 15 12
24 0 13 2 14 9 4 6 -10 10 -8 14 8 3 12 10 19 16 15 6 -3 11 -2 11 4 0 5 3 18
7 28 4 12 -2 9 -18 -9 -31 -35 -45 -36 -22 -2 9 15 17 34 18 44 1 10 9 25 18
35 9 9 17 23 17 31 0 8 9 33 20 55 49 94 46 111 -7 54z"/>
<path d="M283 3567 c-23 -48 -35 -86 -31 -104 2 -10 13 13 25 52 23 71 25 92
6 52z"/>
<path d="M7425 3497 c-4 -10 -5 -21 -1 -24 10 -10 18 4 13 24 -4 17 -4 17 -12
0z"/>
<path d="M7557 3493 c-16 -18 -37 -84 -22 -71 9 8 46 88 41 88 -2 0 -10 -8
-19 -17z"/>
<path d="M444 3468 c-6 -18 -14 -42 -18 -53 l-8 -20 13 20 c7 11 16 23 21 26
5 3 8 18 6 33 l-3 28 -11 -34z"/>
<path d="M471 3439 c-7 -23 -15 -48 -18 -58 -4 -10 -3 -13 4 -6 11 12 36 95
30 101 -2 2 -9 -14 -16 -37z"/>
<path d="M7416 3452 c-2 -4 -7 -25 -11 -47 -7 -48 9 -27 18 23 6 31 3 41 -7
24z"/>
<path d="M7391 3344 c0 -11 3 -14 6 -6 3 7 2 16 -1 19 -3 4 -6 -2 -5 -13z"/>
<path d="M431 3306 c-7 -8 -15 -41 -18 -73 -3 -32 -12 -71 -20 -86 -8 -16 -12
-31 -10 -34 7 -6 31 50 47 107 7 25 16 57 21 73 9 29 -1 36 -20 13z"/>
<path d="M7445 3250 c3 -5 8 -10 11 -10 2 0 4 5 4 10 0 6 -5 10 -11 10 -5 0
-7 -4 -4 -10z"/>
<path d="M429 3163 c-12 -27 -26 -56 -31 -65 -5 -11 -5 -18 1 -18 5 0 13 10
17 23 4 12 18 39 30 59 27 42 28 48 14 48 -5 0 -19 -21 -31 -47z"/>
<path d="M7360 3150 c25 -36 52 -61 59 -54 2 2 -16 23 -40 46 -41 41 -42 42
-19 8z"/>
<path d="M7439 3136 c19 -20 37 -36 39 -36 8 0 -44 59 -58 65 -8 3 1 -10 19
-29z"/>
<path d="M7499 3142 c6 -12 16 -24 22 -28 8 -4 8 -1 0 14 -6 12 -16 24 -22 28
-8 4 -8 1 0 -14z"/>
<path d="M7490 3080 c0 -5 5 -10 11 -10 5 0 7 5 4 10 -3 6 -8 10 -11 10 -2 0
-4 -4 -4 -10z"/>
<path d="M7411 3054 c0 -11 3 -14 6 -6 3 7 2 16 -1 19 -3 4 -6 -2 -5 -13z"/>
<path d="M7470 3064 c0 -5 14 -27 30 -48 l30 -40 -4 35 c-2 19 1 37 8 42 6 4
0 5 -14 3 -14 -2 -31 1 -37 6 -7 6 -13 7 -13 2z"/>
<path d="M336 2963 c-6 -14 -5 -15 5 -6 7 7 10 15 7 18 -3 3 -9 -2 -12 -12z"/>
<path d="M727 2483 c-4 -3 -7 -11 -7 -17 0 -6 5 -5 12 2 6 6 9 14 7 17 -3 3
-9 2 -12 -2z"/>
<path d="M775 2459 c-4 -6 -5 -12 -2 -15 2 -3 7 2 10 11 7 17 1 20 -8 4z"/>
<path d="M961 1804 c0 -11 3 -14 6 -6 3 7 2 16 -1 19 -3 4 -6 -2 -5 -13z"/>
<path d="M1031 1754 c0 -11 3 -14 6 -6 3 7 2 16 -1 19 -3 4 -6 -2 -5 -13z"/>
<path d="M6810 1678 c-12 -22 -12 -22 6 -6 10 10 15 20 12 24 -4 3 -12 -5 -18
-18z"/>
<path d="M6630 1649 c0 -5 5 -7 10 -4 6 3 10 8 10 11 0 2 -4 4 -10 4 -5 0 -10
-5 -10 -11z"/>
<path d="M6615 1610 c-3 -5 -4 -10 0 -10 3 0 1 -10 -5 -22 -11 -22 -10 -22 4
-4 9 11 16 26 16 33 0 16 -6 17 -15 3z"/>
<path d="M1317 1407 c-4 -10 -7 -33 -6 -50 l1 -32 9 33 c12 40 8 79 -4 49z"/>
<path d="M6611 1254 c0 -11 3 -14 6 -6 3 7 2 16 -1 19 -3 4 -6 -2 -5 -13z"/>
<path d="M6126 1220 c4 -19 13 -73 20 -120 l13 -85 -4 85 c-2 50 -10 99 -19
120 l-17 35 7 -35z"/>
<path d="M6508 1164 c-4 -18 8 -65 59 -230 17 -56 29 -81 36 -74 6 6 -29 143
-42 169 -6 11 -10 28 -9 38 3 40 -3 69 -21 92 -17 22 -18 22 -23 5z"/>
<path d="M1741 1094 c-1 -5 -10 -20 -21 -32 -12 -12 -17 -22 -12 -22 16 0 44
38 39 52 -3 7 -6 8 -6 2z"/>
<path d="M1926 1061 c-4 -7 -5 -15 -2 -18 9 -9 19 4 14 18 -4 11 -6 11 -12 0z"/>
<path d="M2289 873 c-16 -18 -10 -22 29 -16 18 3 31 10 29 17 -5 16 -45 16
-58 -1z"/>
<path d="M5690 865 c1 -26 2 -28 11 -12 8 14 8 22 0 30 -8 8 -11 3 -11 -18z"/>
<path d="M2140 854 c0 -8 5 -12 10 -9 6 4 8 11 5 16 -9 14 -15 11 -15 -7z"/>
<path d="M5578 833 c7 -3 16 -2 19 1 4 3 -2 6 -13 5 -11 0 -14 -3 -6 -6z"/>
<path d="M2022 759 c-13 -16 -19 -29 -13 -29 5 0 19 14 31 30 28 39 12 38 -18
-1z"/>
<path d="M2965 700 c4 -6 11 -8 16 -5 14 9 11 15 -7 15 -8 0 -12 -5 -9 -10z"/>
<path d="M5116 697 c3 -10 9 -15 12 -12 3 3 0 11 -7 18 -10 9 -11 8 -5 -6z"/>
<path d="M3050 669 c0 -5 5 -7 10 -4 6 3 10 8 10 11 0 2 -4 4 -10 4 -5 0 -10
-5 -10 -11z"/>
<path d="M2378 653 c-29 -34 -30 -48 -2 -21 15 15 26 30 23 33 -3 3 -13 -3
-21 -12z"/>
<path d="M4116 642 c-9 -18 -15 -39 -13 -45 2 -7 12 3 21 21 9 18 15 39 13 45
-2 7 -12 -3 -21 -21z"/>
<path d="M3200 640 c0 -5 5 -10 11 -10 5 0 7 5 4 10 -3 6 -8 10 -11 10 -2 0
-4 -4 -4 -10z"/>
<path d="M4137 593 c-4 -3 -7 -11 -7 -17 0 -6 5 -5 12 2 6 6 9 14 7 17 -3 3
-9 2 -12 -2z"/>
<path d="M5136 565 c-18 -27 -42 -33 -49 -12 -2 6 -6 0 -9 -15 -3 -14 2 -44 9
-65 8 -21 20 -56 25 -78 40 -151 50 -176 64 -162 5 4 0 33 -10 65 -10 31 -24
75 -31 97 -15 51 -19 141 -6 150 12 7 35 45 28 45 -3 0 -12 -11 -21 -25z"/>
<path d="M3705 520 c-4 -12 -5 -24 -2 -27 3 -2 8 5 12 17 4 12 5 24 2 27 -3 2
-8 -5 -12 -17z"/>
<path d="M4076 518 c-3 -13 -6 -27 -6 -33 1 -15 30 27 30 42 0 22 -17 15 -24
-9z"/>
<path d="M3482 490 c0 -14 2 -19 5 -12 2 6 2 18 0 25 -3 6 -5 1 -5 -13z"/>
<path d="M4492 490 c0 -14 2 -19 5 -12 2 6 2 18 0 25 -3 6 -5 1 -5 -13z"/>
<path d="M3977 473 c-4 -3 -7 -11 -7 -17 0 -6 5 -5 12 2 6 6 9 14 7 17 -3 3
-9 2 -12 -2z"/>
<path d="M4031 354 c0 -11 3 -14 6 -6 3 7 2 16 -1 19 -3 4 -6 -2 -5 -13z"/>
<path d="M3298 190 c-3 -16 -1 -35 4 -42 4 -8 8 4 8 30 0 49 -6 55 -12 12z"/>
</g>
</svg>
