<?xml version="1.0" standalone="no"?>
<!DOCTYPE svg PUBLIC "-//W3C//DTD SVG 20010904//EN"
 "http://www.w3.org/TR/2001/REC-SVG-20010904/DTD/svg10.dtd">
<svg version="1.0" xmlns="http://www.w3.org/2000/svg"
 width="554.000000pt" height="554.000000pt" viewBox="0 0 554.000000 554.000000"
 preserveAspectRatio="xMidYMid meet">
<metadata>
Created by potrace 1.11, written by Peter Selinger 2001-2013
</metadata>
<g transform="translate(0.000000,554.000000) scale(0.100000,-0.100000)"
fill="#000000" stroke="none">
<path d="M1765 5531 c-34 -14 -57 -48 -57 -83 0 -22 52 -152 145 -361 l145
-328 -108 -54 c-226 -114 -468 -301 -621 -480 l-74 -87 -3 66 c-2 47 -7 66
-16 66 -16 0 -26 -43 -26 -111 0 -27 -4 -49 -10 -49 -5 0 -10 -13 -10 -29 0
-18 -22 -64 -59 -123 -33 -52 -70 -116 -82 -141 -13 -26 -26 -47 -30 -47 -11
0 -87 174 -99 224 -12 52 -5 105 17 150 12 24 13 30 1 37 -7 5 -16 9 -19 9
-15 0 -32 -62 -36 -130 -5 -67 -2 -84 27 -155 17 -44 45 -104 61 -133 l29 -52
-23 -56 -24 -56 -58 91 c-57 89 -68 101 -80 81 -7 -12 15 -56 75 -145 47 -70
47 -70 26 -86 -15 -12 -18 -20 -10 -30 8 -10 5 -34 -12 -89 l-22 -75 -29 65
c-17 36 -33 73 -36 83 -6 17 -32 23 -40 9 -3 -4 17 -56 43 -116 l49 -108 -14
-74 c-23 -119 -35 -275 -36 -489 -2 -210 3 -247 46 -345 13 -30 27 -72 30 -93
l7 -38 -36 6 c-32 6 -36 5 -36 -13 0 -16 9 -22 39 -27 54 -9 67 -26 46 -59
-24 -36 -16 -68 22 -86 27 -13 46 -43 123 -194 49 -98 88 -181 86 -184 -3 -2
-42 8 -86 24 -69 24 -83 26 -90 14 -12 -19 9 -30 125 -65 96 -30 110 -39 158
-98 25 -32 27 -38 11 -35 -11 2 -20 -4 -22 -14 -3 -14 6 -19 37 -24 33 -5 49
-17 88 -62 114 -133 353 -319 536 -417 l82 -45 -67 0 c-61 0 -68 -2 -68 -20 0
-19 7 -20 111 -20 102 0 119 -3 203 -34 128 -48 321 -94 456 -109 l114 -13
-23 -23 c-23 -23 -28 -23 -120 -17 -208 15 -405 61 -652 156 -101 38 -135 47
-141 38 -12 -19 11 -32 148 -82 265 -98 434 -136 630 -143 l141 -5 29 34 29
35 145 6 c295 13 578 81 795 189 32 17 61 26 63 22 2 -5 94 -193 205 -419
l203 -409 27 47 c16 27 44 56 66 69 l38 22 -28 62 c-16 34 -99 208 -185 386
-85 178 -158 328 -160 333 -3 6 33 36 78 68 46 31 115 84 153 118 39 33 122
95 185 136 157 103 225 158 260 210 32 49 55 140 46 178 -10 41 -33 18 -39
-39 -7 -69 -34 -122 -89 -172 -37 -34 -103 -83 -146 -108 -7 -4 21 35 62 87
40 53 100 138 131 189 32 51 74 116 94 143 91 122 156 280 185 446 19 109 40
492 32 584 -3 39 -6 88 -6 110 0 38 -22 183 -35 235 -4 14 -8 59 -9 100 -3 95
-14 141 -37 147 -11 3 -29 36 -50 91 -100 266 -296 562 -500 758 -35 34 -72
76 -82 94 -12 22 -22 30 -33 26 -10 -4 -31 5 -52 23 -72 56 -229 154 -325 202
-295 149 -570 213 -907 213 -206 0 -338 -16 -511 -62 l-106 -29 -148 340
c-129 293 -153 342 -179 358 -33 20 -50 22 -81 10z m955 -761 c24 -8 24 -8 -5
-9 -16 0 -37 4 -45 9 -12 8 -11 10 5 9 11 -1 31 -5 45 -9z m164 1 c3 -4 52
-11 108 -15 168 -11 193 -24 48 -25 -114 0 -129 2 -170 24 -41 22 -43 24 -18
25 15 0 29 -4 32 -9z m-446 -38 c-10 -2 -26 -2 -35 0 -10 3 -2 5 17 5 19 0 27
-2 18 -5z m-78 -69 c-97 -45 -98 -45 -105 -23 -9 26 -10 25 55 37 97 17 111
13 50 -14z m808 19 c-21 -2 -57 -2 -80 0 -24 2 -7 4 37 4 44 0 63 -2 43 -4z
m-193 -37 c15 -10 26 -11 32 -5 7 7 32 6 74 -1 35 -5 111 -17 169 -25 82 -12
109 -20 122 -36 19 -23 38 -81 38 -117 0 -24 0 -24 -37 8 -110 91 -136 103
-328 138 -99 19 -193 40 -210 48 -28 14 -26 14 43 10 41 -3 84 -12 97 -20z
m-260 -23 c70 -10 121 -25 170 -48 88 -42 267 -174 282 -208 7 -14 17 -64 24
-111 10 -75 15 -86 32 -86 18 0 19 5 13 58 -4 31 -10 66 -13 77 -7 28 66 -43
122 -118 48 -63 100 -164 110 -213 5 -29 3 -32 -25 -37 -22 -5 -30 -12 -30
-27 0 -17 4 -20 21 -15 19 6 19 4 -7 -47 -26 -51 -27 -52 -36 -28 -27 70 -39
90 -63 106 -20 13 -29 14 -37 6 -9 -9 -5 -19 14 -39 60 -63 65 -147 14 -227
-31 -48 -33 -55 -19 -69 14 -14 8 -19 -65 -56 -117 -59 -220 -91 -289 -91 -63
0 -72 4 -91 38 -15 27 -21 17 93 167 192 252 261 381 221 414 -8 7 -20 9 -27
5 -9 -5 -10 3 -5 29 17 92 -34 197 -127 260 -48 32 -61 37 -68 26 -13 -21 -12
-23 27 -44 55 -30 110 -98 124 -155 14 -57 0 -142 -32 -200 -15 -27 -18 -29
-13 -10 3 14 8 75 12 137 4 84 3 116 -7 128 -24 29 -30 14 -30 -74 0 -103 -23
-247 -49 -306 -10 -22 -32 -53 -49 -67 -18 -15 -32 -34 -32 -42 0 -19 -74 -63
-138 -82 -26 -8 -81 -17 -122 -20 l-75 -5 50 18 c28 10 64 27 80 38 17 11 47
29 68 39 21 11 52 36 68 57 71 90 127 266 115 360 -4 29 -2 66 5 90 11 33 10
42 -1 49 -19 12 -27 5 -35 -31 -5 -22 -11 -29 -22 -25 -12 5 -14 0 -10 -26 5
-39 -64 -261 -111 -353 -41 -82 -67 -104 -138 -115 -32 -6 -64 -10 -69 -10 -6
0 19 30 55 68 66 67 167 224 188 292 6 19 14 65 18 103 5 57 9 66 21 56 11
-10 17 -9 30 3 14 15 13 18 -12 34 -15 9 -37 41 -49 69 -29 64 -73 114 -134
153 -53 34 -173 77 -245 87 -26 4 -46 9 -44 11 1 2 28 10 58 18 59 17 118 14
284 -11z m755 -68 c0 -6 21 -28 46 -50 41 -36 84 -99 84 -124 0 -5 -16 -3 -37
4 -21 8 -54 16 -74 20 -37 5 -37 6 -41 63 -2 31 -14 78 -26 103 -30 63 -28 68
13 29 19 -19 35 -39 35 -45z m155 -42 c12 -19 29 -32 40 -33 22 0 118 -90 97
-90 -7 0 -12 -9 -12 -20 0 -14 7 -20 23 -20 26 0 66 -35 47 -42 -17 -5 -1 -35
22 -41 18 -5 19 -11 13 -49 -4 -23 -22 -94 -41 -157 -33 -115 -34 -131 -10
-131 11 0 76 193 76 225 0 6 12 10 27 9 24 -1 30 -7 45 -55 9 -30 17 -68 17
-85 1 -38 -43 -108 -162 -258 -72 -90 -85 -112 -75 -124 11 -12 18 -8 50 29
21 24 71 88 111 141 39 53 73 95 75 93 2 -1 -9 -38 -23 -81 -22 -68 -103 -220
-175 -330 -18 -27 -18 -33 -5 -44 12 -10 22 0 65 67 113 176 180 334 180 429
0 25 11 57 29 87 l28 48 6 -38 c10 -56 7 -195 -4 -218 -7 -15 -8 -12 -5 17 3
27 0 38 -11 42 -9 4 -17 5 -19 3 -2 -2 -13 -52 -23 -111 -21 -114 -35 -144
-116 -256 -105 -143 -364 -378 -405 -367 -13 3 -20 -7 -29 -43 -17 -66 -64
-126 -122 -156 l-49 -25 -35 28 -34 27 37 12 c53 16 112 48 146 79 27 25 28
28 12 37 -13 7 -23 5 -39 -10 -23 -21 -123 -72 -143 -72 -8 0 -7 13 4 43 12
32 28 50 71 79 153 101 305 238 338 303 34 66 53 134 64 219 5 45 17 125 25
179 31 191 8 362 -60 452 -14 18 -26 42 -26 52 0 36 -50 124 -100 177 -27 29
-50 56 -50 60 0 17 107 -52 125 -81z m-1158 42 c69 -16 174 -63 208 -92 29
-26 75 -83 75 -94 0 -5 -17 2 -38 15 -101 63 -292 143 -384 160 -20 4 -38 12
-41 20 -7 17 88 12 180 -9z m639 -1 c116 -30 168 -56 247 -125 l57 -51 -1 -56
c0 -31 -3 -75 -7 -96 l-7 -39 -38 49 c-78 100 -253 269 -317 307 -76 44 -66
46 66 11z m709 -81 c94 -62 224 -164 263 -206 20 -21 21 -28 11 -50 l-11 -25
-32 40 c-42 56 -75 78 -123 85 -29 4 -44 12 -56 32 -17 28 -163 173 -212 209
-57 43 62 -21 160 -85z m-1750 82 c-11 -8 -25 -18 -31 -24 -23 -19 -74 -41
-74 -31 0 41 -169 -51 -272 -149 -34 -31 -38 -33 -38 -14 0 28 81 101 160 146
63 34 214 86 255 86 l20 0 -20 -14z m59 -82 c16 -33 16 -37 1 -45 -32 -19
-135 -109 -159 -141 -44 -58 -75 -139 -82 -215 -4 -40 -9 -72 -11 -72 -2 0
-22 9 -44 20 -50 26 -58 46 -47 123 18 133 126 278 249 337 35 16 67 30 70 30
3 0 13 -17 23 -37z m432 -52 c55 -26 126 -64 157 -84 49 -32 57 -41 57 -67 l0
-31 -30 16 c-16 8 -52 15 -80 15 -49 0 -50 1 -50 30 0 22 -10 39 -36 63 -54
48 -101 66 -171 67 -35 0 -63 2 -63 4 0 2 -7 20 -15 39 l-15 36 73 -20 c39
-11 117 -42 173 -68z m-678 -8 c-79 -83 -138 -203 -138 -283 0 -22 -4 -40 -8
-40 -12 0 -56 50 -85 96 l-25 41 76 76 c69 68 192 157 217 157 5 0 -11 -21
-37 -47z m266 -67 c-49 -35 -103 -99 -130 -153 -30 -60 -42 -156 -26 -202 6
-17 10 -31 8 -31 -2 0 -17 5 -35 11 -37 13 -46 40 -37 107 15 115 65 193 180
284 44 35 50 38 59 22 8 -14 4 -22 -19 -38z m359 22 l42 -22 -75 -9 c-41 -5
-76 -10 -78 -12 -1 -1 0 -9 4 -18 5 -13 19 -15 89 -10 l83 6 7 -31 c3 -17 3
-51 0 -77 -7 -41 -5 -45 13 -45 15 0 21 9 26 40 l6 40 49 0 c42 0 53 -4 70
-26 24 -30 22 -50 -16 -136 -26 -59 -94 -133 -149 -161 -16 -8 -71 -27 -121
-42 -86 -26 -110 -43 -83 -60 5 -3 61 11 124 32 124 41 133 37 59 -27 -68 -60
-105 -70 -233 -64 -120 5 -290 34 -337 57 -15 7 -35 12 -44 10 -9 -2 -80 12
-157 32 -78 19 -143 35 -146 35 -4 0 -6 -8 -6 -18 0 -16 22 -25 128 -52 75
-19 147 -45 176 -62 67 -41 88 -48 186 -63 47 -8 134 -25 193 -39 206 -47 379
-44 495 9 72 33 106 63 173 155 79 108 88 123 114 186 12 31 25 51 29 46 16
-27 -95 -203 -271 -429 l-63 -82 -37 15 c-29 13 -37 13 -44 2 -14 -21 -11 -27
16 -34 14 -3 25 -10 25 -15 0 -18 -43 -37 -78 -33 -173 19 -378 49 -481 70
-241 50 -518 156 -615 236 -38 31 -38 32 -32 90 5 52 4 58 -13 58 -14 0 -20
-10 -25 -42 -10 -62 -31 -33 -30 41 1 64 29 134 86 220 l35 51 32 -50 c18 -27
52 -66 77 -86 24 -20 44 -43 44 -51 0 -13 18 -50 39 -82 8 -12 12 -12 25 -2
14 12 14 15 -1 37 -9 14 -14 26 -12 28 2 3 24 -5 49 -17 41 -20 46 -26 54 -69
6 -38 12 -48 28 -48 18 0 19 5 13 40 -8 46 -8 46 72 25 79 -21 354 -65 365
-59 4 3 8 11 8 19 0 9 -24 17 -72 25 -197 31 -248 42 -248 55 0 8 -9 16 -19
20 -22 7 -38 44 -24 54 5 3 17 27 26 52 10 26 30 63 45 82 34 44 101 89 125
83 9 -2 15 0 11 5 -3 5 0 9 7 9 7 0 10 2 7 5 -5 5 72 92 82 92 15 0 39 16 34
24 -12 19 97 9 139 -13z m-899 -103 c-113 -156 -148 -224 -169 -330 l-6 -29
-28 44 c-15 25 -34 62 -42 83 -8 23 -18 36 -26 33 -21 -9 -14 7 23 49 35 40
36 40 27 10 -14 -52 -10 -123 9 -142 26 -25 42 -5 28 33 -27 69 28 197 123
287 l62 59 7 -39 c4 -26 2 -44 -8 -58z m1988 64 c22 -16 28 -27 24 -43 -3 -11
-6 -34 -6 -51 l-1 -30 -34 40 c-19 22 -44 57 -56 79 l-22 39 32 -6 c18 -4 46
-16 63 -28z m-1392 -24 c0 -7 -20 -25 -44 -39 -24 -14 -61 -45 -82 -68 l-37
-43 24 44 c25 46 117 134 131 125 4 -3 8 -11 8 -19z m1315 -100 c7 -52 4 -78
-17 -159 l-10 -39 -24 59 c-25 61 -29 115 -18 211 l7 52 28 -35 c19 -24 30
-52 34 -89z m455 53 c19 -13 45 -44 58 -69 l24 -47 -23 -43 -23 -44 -8 38 c-4
22 -24 71 -43 110 -19 39 -35 72 -35 74 0 9 21 1 50 -19z m-288 -45 c18 -39
22 -71 25 -173 l3 -125 -23 80 c-13 44 -30 96 -39 115 -12 28 -13 46 -4 93 6
31 12 57 14 57 2 0 13 -21 24 -47z m498 -98 c0 -43 -52 -196 -56 -165 -27 203
-27 195 -9 230 l18 34 23 -28 c18 -20 24 -39 24 -71z m-615 -36 c-15 -39 -29
-68 -31 -66 -3 2 0 16 5 30 5 14 13 53 17 86 6 58 7 60 22 40 13 -19 12 -27
-13 -90z m-690 -47 c-14 -57 -69 -182 -80 -182 -3 0 1 12 8 28 8 15 29 71 47
125 17 54 34 97 36 95 2 -2 -3 -32 -11 -66z m1426 -17 c23 -36 24 -102 5 -197
-20 -94 -42 -132 -69 -124 -12 4 -37 10 -56 13 -28 5 -33 3 -30 -12 3 -12 18
-22 39 -28 36 -10 35 -11 -12 -21 -20 -5 -25 -11 -21 -25 3 -13 11 -18 21 -15
10 3 -30 -39 -86 -93 -90 -86 -102 -101 -88 -112 13 -11 11 -19 -17 -64 -44
-73 -151 -222 -204 -284 -40 -47 -48 -52 -77 -48 -29 5 -33 2 -64 -55 -18 -33
-46 -76 -62 -94 -50 -57 -213 -161 -307 -197 -24 -9 -25 -8 -12 8 8 10 42 49
76 87 52 56 61 71 51 83 -10 12 -31 -5 -127 -105 l-116 -120 -115 -26 c-63
-15 -126 -29 -138 -32 -19 -4 -11 8 33 51 47 45 71 60 133 81 119 40 169 71
272 172 52 51 118 105 145 119 116 60 308 199 404 292 38 38 101 150 101 181
0 6 8 30 19 53 27 61 81 205 97 258 8 25 27 75 43 110 l30 64 1 -37 c0 -30 4
-38 18 -38 17 0 20 12 25 98 4 53 10 108 13 121 l7 24 24 -29 c14 -16 33 -42
44 -59z m-647 -52 l7 -30 -53 11 c-29 5 -54 11 -56 12 -1 0 12 31 30 67 l33
67 16 -49 c9 -26 20 -61 23 -78z m-2311 15 c20 -40 54 -95 77 -122 22 -26 40
-52 40 -56 0 -4 11 -18 24 -31 13 -13 31 -51 41 -84 9 -33 26 -76 36 -97 19
-38 19 -38 -1 -38 -38 0 -218 121 -306 207 -47 46 -70 112 -52 147 12 24 98
146 102 146 2 0 19 -33 39 -72z m3087 -156 c41 -70 43 -75 37 -135 -3 -34 -10
-73 -15 -87 l-9 -25 -42 43 c-23 23 -47 42 -53 42 -6 0 -8 11 -4 30 4 23 2 30
-10 30 -10 0 -14 6 -11 14 12 30 26 93 32 144 8 61 4 64 75 -56z m-789 67 c14
-21 3 -77 -42 -213 -42 -124 -136 -321 -167 -349 -16 -14 -311 -117 -335 -117
-6 0 11 24 39 53 28 28 58 64 68 80 15 25 15 28 1 34 -11 4 -30 -9 -58 -39
-33 -35 -60 -52 -125 -76 -46 -18 -88 -32 -93 -32 -5 0 -9 -11 -9 -24 0 -21
-8 -26 -82 -44 -167 -41 -233 -47 -349 -28 -207 35 -464 112 -719 215 -119 48
-139 51 -140 20 0 -9 282 -119 416 -163 61 -20 162 -50 225 -67 l114 -30 -80
5 c-90 6 -216 33 -336 73 -73 24 -82 25 -90 10 -9 -14 -13 -15 -52 -1 -65 23
-167 87 -218 138 -36 36 -45 51 -42 70 4 21 0 26 -21 32 -24 6 -56 38 -56 56
0 29 146 -22 227 -80 91 -64 234 -115 388 -138 55 -8 157 -29 227 -46 112 -28
130 -30 158 -18 21 9 33 22 37 41 5 25 11 29 82 44 42 9 101 28 131 42 85 39
202 63 346 72 152 8 169 16 216 92 18 28 51 61 78 79 80 51 130 153 130 265 0
28 3 55 8 59 12 13 113 0 123 -15z m-185 -141 c-15 -50 -67 -128 -86 -128 -26
0 21 121 69 175 32 38 38 23 17 -47z m-2231 -83 c49 -60 160 -148 191 -151 30
-3 37 -8 40 -29 3 -21 -10 -19 -107 14 -178 60 -183 63 -220 147 l-32 75 23
47 22 47 24 -54 c14 -30 40 -73 59 -96z m2420 -17 c-28 -85 -101 -244 -116
-253 -4 -3 12 36 35 87 24 51 57 133 72 181 16 49 30 84 32 78 2 -6 -9 -48
-23 -93z m-2022 46 c33 -19 106 -55 162 -79 56 -24 130 -61 164 -84 143 -92
429 -171 622 -171 44 0 79 -4 79 -9 0 -18 -239 -50 -371 -51 -89 0 -362 79
-532 154 -58 25 -115 84 -152 156 -24 47 -47 120 -38 120 2 0 32 -16 66 -36z
m875 -1 c-26 -2 -71 -2 -100 0 -29 2 -8 3 47 3 55 0 79 -1 53 -3z m-1409 -55
l12 -33 -22 21 c-12 12 -18 27 -15 33 10 16 13 14 25 -21z m367 -85 c15 -9 10
-9 -20 0 -24 7 -62 33 -95 65 l-56 53 76 -53 c42 -29 85 -58 95 -65z m3110
-21 l24 -64 -30 22 c-39 27 -50 56 -50 123 l1 52 15 -35 c9 -19 27 -64 40 -98z
m-266 65 c0 -44 -32 -210 -51 -266 -27 -77 -92 -184 -123 -200 -14 -8 -24 -22
-23 -31 5 -42 -148 -196 -367 -367 -24 -19 -26 -25 -16 -38 10 -12 21 -8 74
33 33 26 103 82 154 125 l92 78 -21 -53 c-54 -137 -139 -253 -236 -319 -59
-41 -158 -77 -291 -105 -61 -13 -115 -24 -119 -24 -4 0 57 65 137 145 115 115
142 147 132 157 -10 10 -35 -10 -123 -97 l-112 -110 44 65 c95 144 171 240
266 335 147 149 366 456 347 486 -9 16 185 205 214 207 17 2 22 -3 22 -21z
m-3208 -27 c26 -19 53 -52 70 -86 81 -159 175 -257 278 -293 28 -9 37 -9 45 2
8 10 20 6 59 -20 60 -41 40 -42 -78 -2 -149 49 -280 129 -405 247 -53 50 -63
64 -58 84 9 34 36 98 42 98 3 0 24 -14 47 -30z m3307 -102 c1 -25 -115 -215
-126 -205 -1 2 12 41 31 88 19 46 42 113 52 149 l18 65 12 -40 c7 -22 13 -48
13 -57z m-445 30 c-31 -109 -71 -174 -148 -241 -106 -93 -323 -243 -334 -232
-2 2 4 17 12 34 9 16 16 40 16 52 0 17 3 19 13 10 11 -8 37 8 119 74 113 90
211 191 285 292 26 35 48 63 49 63 2 0 -4 -24 -12 -52z m-1760 -3 c67 -13 184
-33 261 -43 l140 -18 -85 -9 c-47 -5 -98 -8 -115 -6 -72 6 -355 92 -355 108 0
3 7 2 16 -1 9 -4 71 -17 138 -31z m-857 -31 l138 -47 63 -68 c106 -114 242
-192 412 -234 88 -22 94 -26 77 -49 -12 -16 -17 -16 -92 -1 -170 35 -307 93
-416 175 -48 36 -67 46 -77 38 -10 -9 -8 -16 10 -35 l23 -24 -29 11 c-54 20
-126 81 -170 144 -53 75 -89 136 -82 136 3 0 67 -21 143 -46z m1903 21 c-22
-23 -84 -44 -96 -32 -5 5 92 55 110 56 5 1 -1 -10 -14 -24z m1234 -57 c-3 -46
-8 -84 -9 -86 -1 -2 -6 22 -10 53 -7 60 1 115 16 115 7 0 8 -30 3 -82z m-1669
42 c3 -5 -1 -10 -10 -10 -9 0 -13 5 -10 10 3 6 8 10 10 10 2 0 7 -4 10 -10z
m1830 -162 c15 -68 15 -69 -9 -109 l-24 -41 -7 67 c-5 54 -10 66 -23 63 -14
-3 -16 -14 -13 -75 1 -39 0 -85 -4 -102 -6 -26 -9 -29 -25 -21 -10 6 -21 10
-24 10 -10 0 -7 -29 6 -49 9 -15 6 -29 -22 -77 -30 -54 -120 -168 -126 -161
-2 2 14 57 36 122 22 66 40 127 40 136 0 9 14 60 30 114 17 54 33 130 36 169
10 129 8 126 64 71 43 -42 51 -57 65 -117z m-1850 103 c-6 -5 -39 -11 -75 -14
-60 -4 -63 -4 -35 9 33 15 125 19 110 5z m1633 -176 c-3 -80 -7 -99 -42 -172
-30 -65 -42 -81 -52 -72 -17 14 -55 2 -48 -15 9 -23 -238 -318 -259 -311 -7 3
-32 -22 -56 -55 -38 -52 -141 -152 -141 -136 0 21 43 90 85 137 64 71 127 182
167 295 34 96 98 190 202 297 31 32 75 88 98 124 l43 65 3 -34 c2 -18 2 -73 0
-123z m-3314 27 c101 -84 245 -180 348 -231 88 -43 278 -96 386 -107 67 -7
134 16 175 60 22 24 25 24 104 15 45 -6 201 -9 348 -7 l267 3 -43 -20 c-40
-18 -69 -20 -331 -23 -278 -3 -288 -4 -288 -22 0 -19 8 -20 188 -21 178 -1
184 -2 132 -15 -76 -18 -280 -44 -348 -44 -32 0 -103 9 -160 19 -89 16 -104
17 -109 4 -7 -18 -1 -24 39 -34 26 -7 23 -7 -17 -3 -125 15 -316 88 -408 159
-45 34 -67 38 -67 12 0 -6 12 -22 28 -35 26 -22 26 -22 -26 3 -29 14 -55 32
-58 39 -4 10 -16 10 -55 2 -65 -13 -89 0 -140 74 -56 81 -121 233 -113 265 l6
25 33 -27 c18 -16 67 -56 109 -91z m1386 -1 c0 -15 -30 -21 -71 -15 -62 10
-56 24 10 24 34 0 61 -4 61 -9z m-1474 -188 c-7 -8 -50 31 -78 70 -16 23 -19
37 -13 74 l7 46 45 -92 c25 -50 43 -95 39 -98z m2344 172 c0 -3 -37 -24 -82
-45 -82 -40 -218 -80 -267 -80 -24 0 -25 1 -6 13 11 8 74 30 140 50 66 20 138
43 160 51 45 16 55 18 55 11z m-1959 -113 c52 -21 118 -50 148 -65 30 -14 58
-24 63 -21 12 8 10 32 -4 38 -33 15 127 -9 199 -29 46 -13 103 -27 128 -31 52
-7 53 -19 4 -46 -27 -15 -47 -18 -95 -14 -95 8 -272 55 -359 96 -73 34 -198
109 -184 110 3 0 48 -17 100 -38z m3280 -112 c10 -127 10 -139 -10 -200 -12
-39 -16 -66 -11 -68 20 -7 40 -34 33 -45 -3 -6 -12 -53 -19 -104 -9 -71 -18
-103 -38 -133 -25 -38 -28 -39 -49 -26 -12 8 -52 27 -89 41 -38 15 -68 29 -68
31 0 2 17 48 39 101 55 139 90 255 97 321 6 59 82 237 96 224 4 -4 12 -68 19
-142z m-2429 49 c84 -6 236 -10 338 -7 102 3 201 2 220 -2 l35 -6 -30 -10
c-35 -11 -740 -12 -751 -2 -4 4 -2 14 4 21 7 8 8 18 4 22 -4 5 1 5 10 2 10 -3
86 -11 170 -18z m932 -21 c-16 -35 -18 -35 -92 -42 -41 -3 -109 -6 -150 -6
-54 0 -78 -4 -86 -15 -6 -8 -31 -17 -56 -20 l-45 -6 40 22 c24 13 79 28 134
36 52 8 133 27 180 42 47 15 87 27 89 26 2 -2 -5 -18 -14 -37z m-167 26 c-3
-3 -12 -4 -19 -1 -8 3 -5 6 6 6 11 1 17 -2 13 -5z m-2020 -40 c26 -20 63 -59
81 -88 18 -28 50 -68 70 -88 l36 -38 -43 0 c-35 0 -42 -3 -39 -17 3 -15 17
-19 73 -23 60 -4 80 -11 140 -47 131 -79 321 -146 450 -159 36 -4 65 -11 65
-16 0 -5 -21 -6 -47 -4 -27 3 -84 8 -127 11 -44 3 -93 12 -110 19 -17 7 -37
11 -44 9 -20 -8 -141 35 -241 85 -108 53 -196 128 -206 172 -5 21 -13 30 -26
30 -55 0 16 -119 104 -175 15 -10 25 -20 23 -22 -9 -10 -73 37 -120 87 -63 68
-88 127 -94 223 -3 42 -2 77 2 77 3 0 27 -16 53 -36z m1971 29 c-10 -2 -26 -2
-35 0 -10 3 -2 5 17 5 19 0 27 -2 18 -5z m-2000 -273 c17 -24 30 -45 28 -47
-2 -2 -25 5 -52 15 l-49 20 -2 103 -2 104 22 -76 c13 -42 37 -96 55 -119z
m340 146 c48 -23 125 -58 171 -77 l84 -34 -61 -3 c-54 -3 -69 1 -144 39 -115
58 -174 99 -157 110 18 11 8 15 107 -35z m3499 22 c-3 -8 -6 -5 -6 6 -1 11 2
17 5 13 3 -3 4 -12 1 -19z m-3666 -4 c17 -20 90 -71 154 -106 l50 -28 -48 0
c-43 0 -53 4 -98 47 -56 52 -96 103 -81 103 5 0 15 -7 23 -16z m1989 0 c0 -4
-12 -27 -27 -51 -25 -38 -36 -46 -93 -63 -139 -41 -207 -50 -393 -50 -181 0
-415 17 -400 30 4 3 58 14 118 24 61 10 151 28 200 41 50 13 144 28 210 35 66
6 167 17 225 24 126 16 160 18 160 10z m81 -14 c29 -16 23 -27 -27 -44 -25 -8
-44 -12 -42 -8 35 69 35 70 69 52z m1118 -96 c-19 -53 -44 -101 -61 -119 l-29
-30 21 50 c25 60 94 195 98 191 1 -2 -12 -43 -29 -92z m180 14 c-33 -133 -163
-453 -179 -443 -5 3 -21 -11 -37 -30 l-29 -35 4 65 c2 36 -1 86 -8 112 -9 38
-9 49 2 58 26 20 139 167 199 261 34 52 63 93 65 91 2 -1 -6 -37 -17 -79z
m272 25 c-12 -20 -14 -14 -5 12 4 9 9 14 11 11 3 -2 0 -13 -6 -23z m-1506 -29
c-27 -24 -69 -56 -93 -70 -47 -29 -142 -67 -149 -60 -2 2 10 24 27 47 27 38
42 47 118 75 48 17 98 36 112 42 39 17 38 14 -15 -34z m974 -30 c-6 -21 -29
-73 -50 -116 -38 -76 -57 -93 -173 -156 -4 -2 0 7 9 21 9 15 14 30 12 34 -3 5
24 43 61 85 37 41 85 98 107 126 22 27 41 49 42 48 1 -1 -2 -20 -8 -42z m487
-43 c-15 -28 -28 -51 -31 -51 -3 0 7 25 22 55 15 30 29 53 31 51 2 -2 -8 -27
-22 -55z m-1739 -28 c-20 -27 -47 -51 -63 -56 -16 -4 -122 -11 -235 -14 -222
-6 -384 4 -579 37 -120 21 -335 73 -265 64 224 -26 552 -54 644 -54 186 0 400
28 529 69 2 1 -12 -20 -31 -46z m-1301 27 c23 0 16 -14 -17 -32 -39 -23 -49
-23 -105 5 l-47 22 64 6 c35 3 70 4 77 2 8 -2 20 -3 28 -3z m-176 -45 c86 -43
142 -56 155 -35 3 6 17 10 30 10 31 0 39 14 24 41 -11 20 -10 21 17 14 16 -5
76 -20 134 -35 87 -22 105 -30 105 -46 0 -11 15 -28 34 -40 19 -12 29 -24 23
-28 -26 -16 -191 -17 -282 -2 -141 23 -343 95 -422 150 -22 15 -20 16 35 16
48 0 72 -7 147 -45z m-518 -41 c51 -19 129 -53 173 -74 44 -21 142 -59 218
-85 120 -41 146 -47 195 -42 31 3 163 -5 292 -18 129 -13 272 -26 318 -30 63
-6 82 -10 82 -22 0 -12 7 -14 28 -9 54 13 242 19 242 9 0 -17 -34 -21 -212
-29 -100 -4 -168 -11 -168 -17 0 -15 -169 1 -194 19 -28 19 -86 19 -86 -1 0
-12 -9 -14 -37 -10 -21 2 -107 10 -191 16 -150 12 -153 13 -173 40 -20 28 -56
30 -45 3 3 -8 3 -14 0 -14 -21 0 -178 84 -221 118 -58 46 -68 50 -81 26 -8
-14 -22 -10 -111 36 -90 46 -141 86 -141 111 0 14 13 11 112 -27z m2425 -48
c-37 -55 -99 -112 -152 -138 -16 -9 -66 -23 -110 -32 -44 -9 -90 -19 -103 -22
-17 -3 -4 13 45 60 57 54 83 71 158 101 50 19 113 48 140 64 28 16 52 27 54
25 2 -2 -12 -28 -32 -58z m-1282 30 c171 -28 344 -39 557 -34 l209 5 -23 -24
c-13 -14 -44 -40 -69 -58 -42 -31 -60 -36 -230 -65 -198 -34 -233 -34 -568 1
-94 9 -131 19 -75 19 82 1 294 65 294 89 0 19 -47 42 -99 48 -38 4 -51 3 -51
-7 0 -10 -5 -9 -18 3 -9 8 -31 23 -47 32 l-30 16 30 -5 c17 -3 71 -12 120 -20z
m2099 -50 c-6 -16 -24 -23 -24 -8 0 10 22 33 27 28 2 -2 1 -11 -3 -20z m-3237
-49 c28 -15 72 -45 98 -67 77 -66 187 -113 330 -140 52 -10 68 -19 119 -67
l59 -55 -54 7 c-155 20 -359 68 -359 84 0 4 9 16 20 26 23 20 26 40 8 51 -7 4
-25 -8 -44 -32 l-33 -39 -82 28 c-64 22 -84 25 -90 16 -12 -19 -5 -24 63 -49
35 -12 67 -26 71 -30 6 -6 -31 -98 -47 -117 -1 -1 -18 2 -38 7 -34 10 -36 13
-61 103 -26 94 -50 203 -62 291 l-7 49 29 -20 c15 -11 51 -32 80 -46z m1153
33 c0 -5 -7 -10 -16 -10 -8 0 -12 5 -9 10 3 6 10 10 16 10 5 0 9 -4 9 -10z
m2034 -29 c11 -18 -296 -293 -318 -285 -19 7 -12 25 35 94 33 50 42 57 98 73
50 14 72 28 114 71 55 56 63 61 71 47z m-1132 -56 c-53 -47 -78 -55 -203 -62
-167 -9 -141 12 75 62 179 41 173 41 128 0z m1162 -11 c3 -9 6 -43 6 -77 0
-68 -22 -117 -61 -137 -12 -7 -19 -8 -15 -2 3 5 -1 15 -8 21 -16 13 -47 0 -76
-31 -13 -16 -157 -54 -167 -45 -2 2 38 40 89 85 51 45 120 108 153 141 33 33
63 60 66 60 4 1 10 -6 13 -15z m-214 -4 c0 -5 -4 -10 -10 -10 -5 0 -10 5 -10
10 0 6 5 10 10 10 6 0 10 -4 10 -10z m-231 -24 c-11 -24 -44 -36 -98 -36 -20
0 -13 6 34 29 74 36 77 37 64 7z m799 -76 c11 0 -26 -35 -66 -62 -69 -47 -373
-218 -365 -205 4 7 39 49 77 95 56 67 74 82 91 78 18 -5 26 5 59 79 l38 84 81
-35 c45 -19 83 -34 85 -34z m-1921 54 c-3 -3 -12 -4 -19 -1 -8 3 -5 6 6 6 11
1 17 -2 13 -5z m56 -51 c-13 -2 -33 -2 -45 0 -13 2 -3 4 22 4 25 0 35 -2 23
-4z m1132 -3 c15 -24 -86 -183 -128 -200 -12 -5 -83 -18 -157 -30 -220 -34
-224 -34 -127 -1 142 50 209 89 319 187 59 53 81 63 93 44z m-145 -20 c-32
-26 -167 -78 -232 -90 -28 -6 -86 -10 -129 -10 -61 0 -79 -3 -79 -14 0 -8 7
-17 16 -20 28 -11 147 -6 214 8 36 8 66 13 68 11 2 -2 -33 -17 -76 -34 -200
-77 -451 -131 -603 -131 l-104 1 145 58 c210 84 227 92 315 156 l80 58 164 8
c90 5 166 11 169 14 3 3 21 5 41 5 l36 0 -25 -20z m-536 -15 c3 -8 16 -15 28
-15 23 -1 23 -1 3 -16 -17 -13 -20 -13 -23 -1 -4 22 -38 27 -70 12 -28 -13
-324 -64 -522 -89 -209 -27 -412 -38 -640 -34 l-226 3 -51 33 c-28 18 -57 40
-65 49 -11 15 -10 16 12 10 231 -65 344 -82 433 -67 31 5 62 12 69 16 22 14
260 43 483 58 289 20 459 36 510 46 22 4 43 8 46 9 4 0 9 -6 13 -14z m1397
-52 c-12 -22 -73 -81 -124 -118 -29 -21 -40 -25 -51 -16 -11 9 -20 4 -45 -28
-24 -30 -54 -49 -136 -85 -58 -25 -110 -46 -115 -46 -6 0 -10 8 -10 19 0 21
26 48 32 32 3 -10 410 217 437 244 20 20 24 19 12 -2z m-1416 -12 c-18 -18
-249 -113 -385 -158 -129 -44 -137 -45 -215 -39 -44 4 -112 13 -152 20 -66 11
-72 11 -76 -6 -6 -20 2 -23 98 -38 38 -6 71 -13 74 -16 15 -14 -274 5 -369 25
l-35 7 55 19 c30 10 80 30 110 45 44 22 80 30 180 39 151 15 419 54 584 85
150 29 142 28 131 17z m1459 -43 c-63 -216 -250 -565 -323 -602 -16 -9 -33
-16 -36 -16 -14 0 62 123 85 138 99 63 137 144 156 335 6 67 8 70 68 132 33
35 62 64 63 64 1 1 -5 -23 -13 -51z m-3059 -50 c119 -17 161 -27 205 -50 l55
-28 -245 4 c-158 3 -280 10 -344 20 -55 9 -102 18 -104 20 -4 4 34 83 49 102
6 7 44 1 121 -18 62 -16 180 -38 263 -50z m2605 -8 c-52 -62 -65 -71 -57 -39
4 13 7 34 7 46 0 16 9 23 38 31 20 5 41 10 45 11 5 1 -10 -21 -33 -49z m-131
-32 c-17 -34 -66 -112 -85 -137 -2 -2 -17 -4 -34 -6 -17 -1 -33 -5 -37 -9 -3
-3 -20 -6 -36 -6 -24 0 -28 3 -22 18 4 9 18 46 32 82 14 36 26 67 29 69 5 5
168 38 172 35 2 -1 -7 -22 -19 -46z m-2044 -3 c-40 -18 -95 -18 -136 0 -33 14
-30 14 66 14 93 -1 98 -2 70 -14z m157 -11 c-34 -13 -81 -26 -105 -29 l-42 -5
43 19 c23 11 42 25 42 31 0 6 25 10 63 9 l62 0 -63 -25z m1536 -23 c-19 -27
-117 -109 -164 -136 -38 -22 -59 -25 -234 -35 -107 -6 -195 -12 -197 -14 -6
-6 9 -36 18 -36 4 0 6 -6 3 -14 -6 -16 82 -29 149 -21 92 10 -67 -25 -181 -40
-207 -28 -469 -14 -696 35 -110 24 -106 24 -106 0 0 -11 2 -20 4 -20 2 0 48
-9 102 -20 110 -23 321 -50 399 -51 44 0 47 -2 27 -11 -27 -13 -272 2 -447 27
-86 13 -113 21 -124 36 -15 21 -57 26 -63 8 -5 -14 -58 -3 -225 47 -129 39
-129 39 -136 19 -5 -11 19 -22 101 -49 59 -19 123 -37 144 -41 20 -4 46 -17
58 -30 l21 -22 -43 -20 c-64 -30 -177 -53 -260 -53 -132 0 -352 43 -577 112
l-73 23 -44 80 c-26 47 -43 90 -42 105 3 24 5 25 63 22 81 -5 135 -19 135 -37
0 -8 5 -15 11 -15 6 0 86 -7 177 -15 504 -45 638 -56 742 -61 211 -11 420 23
620 101 118 46 181 59 390 80 91 9 228 27 305 40 77 13 144 23 148 24 5 1 2
-7 -5 -18z m127 -20 c-18 -52 -45 -104 -59 -113 -6 -4 -24 -8 -40 -8 -29 0
-29 0 26 58 30 31 60 67 67 80 18 34 22 26 6 -17z m565 -141 c-38 -85 -75
-160 -82 -167 -14 -13 -119 -43 -155 -43 -20 0 -14 11 50 93 39 51 94 125 122
164 44 63 125 132 133 113 1 -4 -29 -76 -68 -160z m-3119 140 c30 -7 26 -8
-26 -9 -33 0 -73 6 -90 14 -29 14 -28 14 26 9 31 -3 71 -10 90 -14z m2800 -33
c-13 -13 -15 1 -4 30 7 17 8 17 11 -1 2 -10 -1 -23 -7 -29z m-2179 11 c-146
-25 -501 -38 -531 -19 -30 19 49 26 305 26 147 0 248 -3 226 -7z m278 -42
l135 -23 -120 -14 c-139 -16 -595 -17 -665 -1 l-45 10 70 1 c101 2 288 19 375
35 100 18 95 18 250 -8z m2074 -73 c-88 -120 -165 -213 -186 -224 -18 -10 -19
-8 -12 13 4 12 17 63 30 111 12 49 24 90 26 92 4 4 189 83 196 85 1 0 -23 -35
-54 -77z m-602 37 c-18 -17 -38 -30 -44 -30 -6 0 6 13 28 30 50 38 58 38 16 0z
m-902 -6 c-162 -52 -329 -70 -536 -59 -74 4 -134 9 -132 10 2 2 50 9 108 15
58 6 141 18 185 27 65 12 187 21 430 30 11 1 -14 -10 -55 -23z m1317 -1 c-9
-9 -20 -13 -24 -9 -4 4 -1 11 7 16 25 16 35 11 17 -7z m388 -61 c-8 -26 -27
-60 -41 -77 -30 -35 -30 -33 16 73 36 85 54 87 25 4z m-575 7 c-11 -19 -65
-49 -90 -49 -17 0 17 58 37 63 10 3 28 5 41 6 20 1 21 -1 12 -20z m-138 -31
c-23 -37 -50 -53 -107 -64 l-39 -7 43 51 c38 47 47 52 83 52 l40 0 -20 -32z
m318 19 c0 -10 -27 -116 -46 -179 -3 -10 -20 -20 -40 -24 -39 -7 -52 -1 -36
18 5 7 25 49 43 93 30 74 51 105 71 105 4 0 8 -6 8 -13z m-515 -67 c-21 -22
-53 -44 -69 -50 -76 -24 -491 -67 -561 -58 -48 7 -10 15 125 27 146 13 314 49
443 95 51 17 94 31 96 29 3 -2 -13 -21 -34 -43z m416 28 c-55 -141 -81 -178
-127 -178 -19 0 -34 2 -34 4 0 3 30 44 66 93 56 73 77 95 101 102 1 1 -1 -9
-6 -21z m-191 -78 c-44 -38 -100 -75 -100 -67 0 14 66 84 88 94 52 23 57 12
12 -27z m-165 -68 c-62 -59 -79 -70 -144 -90 -41 -12 -76 -20 -78 -18 -2 2 9
11 24 21 15 10 54 43 85 73 44 42 68 57 110 67 29 7 58 13 63 14 6 0 -22 -30
-60 -67z m-1220 4 c55 -8 134 -18 175 -21 68 -7 150 -37 150 -57 0 -10 -142
-66 -212 -84 -100 -24 -359 -30 -498 -10 -143 21 -190 31 -170 39 8 3 80 20
160 37 165 36 208 52 217 77 12 34 26 44 52 39 14 -3 71 -12 126 -20z m-978
-30 c70 -20 178 -44 238 -54 108 -19 109 -19 60 -25 -119 -15 -211 -19 -289
-12 l-84 7 -41 58 c-44 63 -49 75 -27 67 8 -3 72 -22 143 -41z m2351 14 c-14
-20 -30 -30 -47 -30 -24 0 -22 3 19 30 25 16 46 30 48 30 1 0 -7 -13 -20 -30z
m-403 3 c-27 -11 -82 -17 -170 -19 l-130 -3 129 14 c72 8 137 16 145 18 9 3
27 5 41 5 20 0 17 -3 -15 -15z m923 -25 c-8 -13 -27 -44 -42 -70 -31 -53 -34
-55 -50 -32 -14 18 -46 9 -46 -13 0 -8 -9 -17 -19 -20 -11 -3 -50 -41 -86 -84
-37 -43 -68 -79 -70 -79 -2 0 10 24 25 53 40 74 55 129 42 154 -9 17 -6 25 18
48 23 22 49 32 117 46 126 24 129 24 111 -3z m-1515 -5 c-7 -2 -19 -2 -25 0
-7 3 -2 5 12 5 14 0 19 -2 13 -5z m137 -7 c0 -32 388 -34 464 -2 53 22 56 20
15 -10 -84 -63 -120 -74 -244 -74 -118 0 -233 18 -302 46 l-38 16 24 19 c28
22 81 26 81 5z m1084 -30 c-3 -9 -13 -16 -20 -16 -8 0 -17 -7 -20 -15 -7 -17
-126 -95 -246 -160 -81 -43 -99 -61 -81 -78 7 -8 136 60 255 134 43 26 78 46
78 44 0 -17 -46 -95 -56 -95 -20 0 -98 -93 -132 -158 -35 -66 -50 -75 -149
-87 -34 -4 -53 -12 -53 -20 0 -14 -127 -47 -229 -60 l-55 -7 143 138 c121 117
153 143 209 168 93 39 185 107 233 171 36 48 45 54 82 57 51 4 49 4 41 -16z
m-144 -5 c0 -26 -192 -173 -206 -158 -3 3 24 42 62 86 63 75 70 81 106 81 21
0 38 -4 38 -9z m-156 -23 c-61 -72 -123 -132 -169 -163 -42 -30 -68 -39 -144
-51 -52 -8 -97 -14 -102 -12 -19 6 39 51 146 114 61 36 124 78 140 94 29 27
53 35 119 39 l29 1 -19 -22z m-799 -39 c43 -11 116 -24 164 -28 l86 -7 -70
-22 c-162 -50 -319 -72 -385 -53 -28 8 -20 15 28 26 22 5 32 12 32 26 0 10 -2
19 -5 19 -2 0 -84 -20 -182 -44 -98 -24 -196 -47 -218 -50 l-40 -7 50 32 c30
19 78 38 119 46 83 17 207 62 255 91 31 19 37 19 62 7 15 -8 62 -24 104 -36z
m560 1 c-30 -49 -427 -181 -679 -226 -121 -22 -346 -20 -486 4 -98 17 -102 19
-65 26 22 4 109 21 194 39 l155 31 82 -17 c45 -9 98 -17 118 -17 58 0 273 49
381 87 111 38 140 47 235 67 36 7 66 14 68 15 2 0 0 -3 -3 -9z m-1703 -10 c8
-24 307 -69 463 -70 l110 -1 -46 -24 c-71 -37 -165 -57 -284 -61 -177 -6 -344
32 -488 110 l-58 31 133 11 c73 6 141 12 150 12 9 1 18 -3 20 -8z m-322 -9 c0
-19 -22 -23 -38 -7 -15 15 -14 16 11 16 15 0 27 -4 27 -9z m2832 -38 c-75 -95
-251 -249 -387 -339 -61 -41 -178 -93 -126 -56 14 9 45 34 70 55 25 21 69 50
96 64 107 55 192 125 278 228 41 50 79 83 95 85 2 0 -10 -17 -26 -37z m-2755
-44 l78 -41 -50 6 c-39 5 -57 14 -85 41 -19 19 -32 35 -28 35 3 0 41 -18 85
-41z m2627 -13 c-33 -39 -85 -86 -139 -126 -11 -7 21 27 70 77 96 98 130 122
69 49z m-2249 -96 c105 -5 222 -16 260 -25 286 -65 540 -62 814 9 107 28 112
19 6 -12 -228 -66 -515 -90 -740 -62 -44 5 -176 19 -292 30 -175 16 -224 25
-278 46 -36 14 -65 29 -65 31 0 3 24 3 53 -1 28 -4 138 -11 242 -16z m1495
-14 c0 -2 -15 -13 -32 -24 -18 -11 -59 -35 -92 -55 -49 -30 -61 -34 -78 -24
-16 10 -21 9 -29 -5 -24 -43 -72 -64 -201 -89 -77 -14 -260 -23 -294 -14 -24
6 -14 10 61 21 188 28 334 75 441 141 40 25 76 39 114 43 71 9 110 11 110 6z
m471 -13 c-5 -10 -17 -27 -26 -38 -16 -19 -17 -19 -3 5 26 46 29 50 34 50 3 0
0 -8 -5 -17z m-711 2 c0 -9 -104 -58 -172 -81 -73 -25 -227 -58 -234 -51 -3 2
24 10 58 16 35 7 96 28 136 47 101 49 212 85 212 69z m-1002 -96 c101 -10 245
-19 320 -20 144 -1 144 -5 2 -32 -61 -11 -86 -11 -135 -1 -52 11 -62 10 -72
-3 -10 -13 -31 -15 -125 -11 -103 5 -123 9 -220 47 -60 24 -108 45 -108 48 0
6 82 -1 338 -28z m-348 -14 c81 -34 85 -38 30 -29 -25 3 -62 18 -82 32 -37 24
-50 39 -25 29 6 -3 41 -17 77 -32z m1530 -19 c0 -2 -25 -24 -56 -50 -53 -43
-60 -46 -113 -45 l-56 0 75 27 c42 15 91 37 110 49 40 24 40 24 40 19z m320
-61 c0 -17 -206 -99 -215 -85 -4 6 -21 2 -43 -9 -20 -10 -52 -22 -69 -26 -18
-3 -33 -11 -33 -16 0 -5 -22 -9 -50 -9 -42 0 -50 -3 -50 -19 0 -20 -16 -25
-125 -36 l-60 -6 52 25 c29 13 80 44 114 67 54 37 71 43 143 50 93 10 200 32
266 53 49 15 70 19 70 11z m-1135 -33 l50 -8 -42 -6 c-33 -5 -232 5 -253 13
-3 1 13 5 35 10 40 7 117 4 210 -9z m-305 -27 c129 -29 256 -33 495 -14 121
10 243 20 270 24 37 4 46 3 35 -5 -19 -13 -93 -53 -100 -53 -3 0 -23 -8 -45
-18 -93 -41 -344 -88 -468 -89 -39 0 -89 10 -150 31 -95 31 -272 112 -226 103
34 -7 47 12 23 32 -17 14 -14 15 36 11 30 -3 89 -13 130 -22z m925 -31 c-44
-35 -181 -93 -218 -94 -23 0 21 43 75 74 49 27 74 35 113 35 47 0 49 -1 30
-15z m385 -68 c0 -6 -105 -40 -200 -65 -74 -20 -75 -20 -50 -1 14 11 59 27
100 35 41 9 86 20 100 25 28 10 50 12 50 6z m-656 -21 c-4 -9 -18 -15 -38 -14
l-31 1 35 13 c19 7 36 14 37 14 1 1 0 -6 -3 -14z m-164 -45 c0 -5 29 -10 65
-12 50 -2 63 -6 56 -16 -10 -16 -201 -22 -276 -8 l-50 9 95 18 c52 9 98 17
103 18 4 0 7 -3 7 -9z m450 -23 c-37 -17 -68 -21 -170 -23 -146 -3 -140 0 41
25 172 24 184 24 129 -2z"/>
</g>
</svg>
